<?xml version="1.0" encoding="utf-8"?>
<!-- Generator: Adobe Illustrator 27.5.0, SVG Export Plug-In . SVG Version: 6.00 Build 0)  -->
<svg version="1.1" xmlns="http://www.w3.org/2000/svg" xmlns:xlink="http://www.w3.org/1999/xlink" x="0px" y="0px"
	 viewBox="0 0 500 500" style="enable-background:new 0 0 500 500;" xml:space="preserve">
<g id="BACKGROUND">
	<g>
		<rect style="fill:#F8FAFF;" width="500" height="500"/>
	</g>
</g>
<g id="OBJECTS">
	<g>
		<g>
			<g>
				<path style="fill:#E6E9F4;" d="M242.165,64.51c0,0-82.159-32.691-121.702,16.382c-39.542,49.074,56.679,113.164-42.655,162.121
					c-70.148,34.573-34.267,128.1,39.997,116.092c84.505-13.663,27.06-61.435,213.632-33.005
					C423.849,340.183,492.136,143.8,242.165,64.51z"/>
			</g>
		</g>
		<g>
			<ellipse style="fill:#C7CAD8;" cx="249.8" cy="456.492" rx="217.957" ry="9.175"/>
		</g>
		<g>
			<g>
				<path style="fill:#E6E9F4;" d="M332.882,90.556c3.835-4.696,2.182-11.719-3.196-14.517c-4.234-2.203-9.578-3.413-13.564,1.014
					c-7.714,8.566,3.857,14.351,9.979,16.066C328.697,93.846,331.693,92.012,332.882,90.556z"/>
			</g>
		</g>
		<g>
			<g>
				<path style="fill:#E6E9F4;" d="M313.889,352.327c0,0,23.338,3.911,28.958-8.285c5.62-12.195-22.871-17.276-33.106-10.198
					C299.506,340.922,305.754,351.73,313.889,352.327z"/>
			</g>
		</g>
	</g>
	<g>
		<g>
			<g>
				<path style="fill:#C7CAD8;" d="M328.869,452.392c0,0,10.754-9.64,6.103-14.565c-4.651-4.926-11.83,11.734-11.83,11.734
					s1.923-20.862-6.564-20.862c-8.202,0,0.836,23.693,0.836,23.693H328.869z"/>
			</g>
		</g>
		<g>
			<g>
				<g>
					<g>
						<path style="fill:#C7CAD8;" d="M54.325,274.926c5.801-4.707,11.984-5.738,10.221,0.573c-1.597,5.713-11.734,4.788-15.38,8.267
							c2.732,4.007,5.838,8.093,9.374,12.244c0.337,0.395,0.672,0.781,1.006,1.162c1.832-0.098,3.868-0.682,5.932-2.169
							c6.733-4.851,14.666-9.155,17.467-4.466c2.778,4.65-3.032,8.471-13.101,16.535c0.442,0.346,0.881,0.676,1.318,0.998
							c18.317,7.861,32.028,1.071,43.538-12.717c-2.001-1.856-4.273-3.84-6.512-5.53c-6.297-4.751-51.671-61.326-61.557-76.613
							c0,0,55.884,65.271,67.047,75.541c0.938,0.863,1.806,1.662,2.618,2.41c1.136,1.047,2.155,1.987,3.068,2.829l1.134-0.331
							c-1.43-2.818-1.243-4.874-1.213-5.123c0.511-1.607,1.648-3.322,3.813-5.014c8.14-6.364,15.261-7.567,15.983-18.031
							c-0.091-5.509-1.581-11.025-4.066-16.327c-0.143,0.153-0.292,0.305-0.452,0.457c-9.471,9.066-14.058,14.442-18.341,11.051
							c-4.282-3.391,1.022-10.692,6.712-16.733c2.794-2.967,3.286-6.166,3.064-8.655c-3.179-3.802-6.751-7.334-10.499-10.484
							c-4.669,2.366-4.746,13.777-10.982,14.664c-6.487,0.923-4.657-5.073,0.769-10.208c3.765-3.563,3.39-7.785,2.807-10.037
							c-4.429-2.973-8.906-5.352-13.11-6.969c-0.002,0.356,0.014,0.721,0.051,1.098c0.907,9.157-7.05,18.43-12.07,15.483
							c-5.019-2.947,0.409-11.641,1.615-15.901c0.407-1.439,0.563-2.77,0.54-3.994c-6.857-2.203-13.095-4.031-18.696-5.402
							c0.911,5.585,4.893,11.234,3.006,15.026c-2.785,5.597-9.04,2.648-8.857-6.419c0.093-4.598-1.723-7.546-3.537-9.335
							c-0.978-0.965-2.248-1.584-3.613-1.746c-1.66-0.197-3.233-0.322-4.714-0.372c-7.129-0.237-14.356,5.312-15.979,12.258
							c-0.509,2.18-0.98,4.706-1.32,7.538c0,0,1.683,7.531,10.697,8.535c9.014,1.004,11.119,7.59,5.206,9.62
							c-4.456,1.529-10.241-4.442-16.344-5.368c0.277,5.806,1.222,12.298,3.227,19.331c1.579,0.453,3.422,0.631,5.554,0.32
							c4.382-0.638,13.711-4.883,15.976,0.479c2.265,5.362-7.969,12.038-16.929,9.941c-0.305-0.071-0.603-0.125-0.898-0.168
							c1.804,4.34,4.026,8.835,6.74,13.458C46.912,277.401,50.665,277.897,54.325,274.926z M78.542,270.941
							c4.726-0.157-0.596,12.072-4.65,9.052c-0.929-0.692-1.302-1.904-1.035-3.031C73.359,274.837,74.778,271.066,78.542,270.941z
							 M62.403,260.854c0.283-0.249,0.681-0.319,1.05-0.393c1.225-0.244,4.359-0.657,6.223,0.992
							C71.934,263.45,57.776,264.934,62.403,260.854z M100.556,255.651c0,0,4.128-9.615,6.87-7.244
							C110.168,250.779,100.301,264.172,100.556,255.651z M84.727,241.687c0.328-1.706,1.254-5.135,3.489-5.936
							c3.007-1.077,4.435,3.027,2.591,5.338c-1.567,1.965-3.931,4.697-5.492,2.945C84.751,243.402,84.567,242.519,84.727,241.687z"
							/>
					</g>
				</g>
				<g>
					<g>
						<path style="fill:#9A9FB2;" d="M114.701,295.352l4.664-1.362c-0.912-0.842-1.932-1.782-3.068-2.829
							c-0.813-0.749-1.681-1.548-2.618-2.41c-11.163-10.27-67.047-75.541-67.047-75.541c9.886,15.286,55.26,71.862,61.557,76.613
							C110.428,291.512,112.701,293.496,114.701,295.352z"/>
					</g>
				</g>
			</g>
			<g>
				<g>
					<path style="fill:#9A9FB2;" d="M67.462,240.151c-10.11-0.911-17.52,1.97-17.52,1.97c11.53-1.637,21.029,2.602,21.029,2.602
						L67.462,240.151z"/>
				</g>
			</g>
			<g>
				<g>
					<path style="fill:#9A9FB2;" d="M67.922,239.319c-0.133-10.151,3.306-17.318,3.306-17.318
						c-2.516,11.371,0.983,21.167,0.983,21.167L67.922,239.319z"/>
				</g>
			</g>
			<g>
				<g>
					<path style="fill:#9A9FB2;" d="M85.556,259.651c3.338-9.587,9.016-15.152,9.016-15.152c-6.244,9.83-6.296,20.233-6.296,20.233
						L85.556,259.651z"/>
				</g>
			</g>
			<g>
				<g>
					<path style="fill:#9A9FB2;" d="M101.941,276.7c1.867-9.978,6.65-16.329,6.65-16.329c-4.705,10.653-3.202,20.946-3.202,20.946
						L101.941,276.7z"/>
				</g>
			</g>
			<g>
				<g>
					<path style="fill:#9A9FB2;" d="M84.608,261.513c-9.877,2.346-15.989,7.429-15.989,7.429
						c10.414-5.212,20.768-4.207,20.768-4.207L84.608,261.513z"/>
				</g>
			</g>
			<g>
				<g>
					<path style="fill:#9A9FB2;" d="M99.904,279.546c-10.117,0.844-16.92,4.956-16.92,4.956c11.076-3.598,21.163-1.057,21.163-1.057
						L99.904,279.546z"/>
				</g>
			</g>
		</g>
		<g>
			<g>
				<g>
					<g>
						<path style="fill:#C7CAD8;" d="M468.857,416.536c1.31-5.199,2.182-10.137,2.697-14.808c-0.271,0.124-0.543,0.259-0.815,0.413
							c-8.012,4.525-19.708,0.986-19.037-4.796c0.671-5.782,10.816-4.323,15.201-4.939c2.134-0.3,3.853-0.987,5.242-1.865
							c-0.047-7.313-0.96-13.81-2.322-19.46c-5.598,2.599-9.477,9.953-14.183,9.735c-6.245-0.29-6.071-7.203,2.3-10.694
							c8.37-3.491,7.875-11.191,7.875-11.191c-1.12-2.624-2.28-4.916-3.38-6.866c-3.505-6.213-11.998-9.513-18.775-7.287
							c-1.408,0.463-2.882,1.024-4.421,1.678c-1.264,0.538-2.31,1.488-2.978,2.689c-1.239,2.226-2.157,5.565-0.778,9.952
							c2.719,8.652-2.459,13.236-6.702,8.645c-2.874-3.11-0.637-9.649-1.328-15.266c-4.992,2.887-10.468,6.39-16.432,10.428
							c0.321,1.181,0.845,2.416,1.639,3.682c2.351,3.752,10,10.575,6.008,14.811c-3.992,4.236-14.23-2.434-15.927-11.478
							c-0.07-0.372-0.158-0.726-0.259-1.068c-3.582,2.731-7.212,6.27-10.63,10.366c0.072,2.325,0.896,6.482,5.509,8.847
							c6.648,3.408,10.086,8.65,3.6,9.583c-6.235,0.897-9.508-10.035-14.653-10.997c-2.715,4.074-5.153,8.467-7.138,13.007
							c0.485,2.451,1.854,5.384,5.368,7.449c7.156,4.203,14.294,9.725,11.134,14.18c-3.16,4.456-9.07,0.581-20.704-5.466
							c-0.195-0.101-0.382-0.206-0.562-0.312c-0.9,5.786-0.783,11.498,0.674,16.812c3.627,9.842,10.8,9,20.397,12.827
							c2.553,1.018,4.125,2.345,5.066,3.744c0.098,0.231,0.854,2.152,0.272,5.258h1.181c0.64-1.064,1.354-2.252,2.152-3.576
							c0.57-0.947,1.179-1.957,1.837-3.048c7.836-12.988,43.177-91.309,43.177-91.309c-5.204,17.445-32.895,84.473-37.607,90.799
							c-1.676,2.25-3.301,4.791-4.701,7.134h45.358c0.329-0.431,0.658-0.871,0.986-1.327c-11.926-4.917-18.574-6.956-17.211-12.198
							c1.375-5.287,10.195-3.38,18.019-0.611c2.398,0.849,4.516,0.838,6.302,0.419c0.214-0.459,0.428-0.923,0.64-1.397
							c2.23-4.976,4.066-9.769,5.565-14.381c-4.475-2.318-13.946,1.413-17.081-3.623c-3.462-5.563,2.762-6.308,9.65-3.416
							C463.43,419.439,466.892,417.912,468.857,416.536z M441.866,424.764c0.572,1.008,0.554,2.275-0.144,3.2
							c-3.045,4.035-11.582-6.211-7.002-7.386C438.368,419.643,440.788,422.865,441.866,424.764z M440.569,408.987
							c1.327-2.106,4.452-2.588,5.696-2.697c0.375-0.033,0.777-0.077,1.118,0.083C452.969,408.991,438.963,411.535,440.569,408.987z
							 M400.677,407.048c1.967-3.046,8.625,5.027,8.625,5.027C411.936,420.182,398.709,410.094,400.677,407.048z M420.675,396.651
							c-1.007,2.12-4.042,0.16-6.097-1.287c-2.418-1.702-2.198-6.042,0.99-5.851c2.371,0.142,4.221,3.174,5.013,4.719
							C420.967,394.987,421.038,395.885,420.675,396.651z"/>
					</g>
				</g>
				<g>
					<g>
						<path style="fill:#9A9FB2;" d="M406.856,454.149h-4.859c0.64-1.064,1.354-2.252,2.152-3.576
							c0.57-0.947,1.179-1.957,1.837-3.048c7.836-12.988,43.177-91.309,43.177-91.309c-5.204,17.445-32.895,84.473-37.607,90.799
							C409.881,449.265,408.256,451.806,406.856,454.149z"/>
					</g>
				</g>
			</g>
			<g>
				<g>
					<path style="fill:#9A9FB2;" d="M436.723,387.918c9.45-3.709,17.37-3.022,17.37-3.022c-11.527,1.661-19.456,8.394-19.456,8.394
						L436.723,387.918z"/>
				</g>
			</g>
			<g>
				<g>
					<path style="fill:#9A9FB2;" d="M436.048,387.248c-2.718-9.781-8.029-15.696-8.029-15.696
						c5.603,10.209,4.991,20.594,4.991,20.594L436.048,387.248z"/>
				</g>
			</g>
			<g>
				<g>
					<path style="fill:#9A9FB2;" d="M424.822,411.708c-5.892-8.267-12.902-12.016-12.902-12.016
						c8.75,7.685,11.717,17.656,11.717,17.656L424.822,411.708z"/>
				</g>
			</g>
			<g>
				<g>
					<path style="fill:#9A9FB2;" d="M413.875,432.667c-4.59-9.054-10.962-13.809-10.962-13.809
						c7.503,8.907,8.947,19.208,8.947,19.208L413.875,432.667z"/>
				</g>
			</g>
			<g>
				<g>
					<path style="fill:#9A9FB2;" d="M426.254,413.23c10.138-0.518,17.431,2.648,17.431,2.648
						c-11.458-2.083-21.115,1.784-21.115,1.784L426.254,413.23z"/>
				</g>
			</g>
			<g>
				<g>
					<path style="fill:#9A9FB2;" d="M416.628,434.828c9.947-2.027,17.631,0.014,17.631,0.014
						c-11.641-0.348-20.611,4.919-20.611,4.919L416.628,434.828z"/>
				</g>
			</g>
		</g>
		<g>
			<g>
				<g>
					<g>
						<g>
							<g>
								<path style="fill:#C7CAD8;" d="M313.468,302.261c-4.573,3.633-2.697,3.577-4.198,13.331
									c-0.388,2.524-1.289,5.014-2.623,7.167l-27.005-5.694c0.023-1.518,0.835-3.049,2.981-4.427
									c8.421-5.408,10.878-8.058,10.025-15.24c-0.853-7.182-3.33-12.806,4.748-14.662c8.078-1.856,6.137-11.596,5.818-17.307
									c-0.32-5.711,5.114-4.289,11.004-8.528c5.891-4.239-0.302-8.96,5.686-15.744c5.988-6.785,19.94-7.695,23.218-22.044
									c0,0,3.553,11.391-0.853,20.653c-4.406,9.263-11.678,12.513-9.879,19.539c1.798,7.026,0.049,14.274-6.073,17.346
									c-6.121,3.072-6.448,7.647-6.211,14.633C320.343,298.271,318.042,298.628,313.468,302.261z"/>
							</g>
						</g>
					</g>
				</g>
			</g>
			<g>
				<g>
					<g>
						<g>
							<g>
								<g>
									<g>
										<g>
											<path style="fill:#9A9FB2;" d="M291.716,319.611l37.115-72.741c0.174-0.342,0.596-0.479,0.938-0.305
												c0.004,0.002,0.008,0.004,0.012,0.006c0.335,0.178,0.467,0.594,0.294,0.935l-36.943,72.403L291.716,319.611z"/>
										</g>
									</g>
								</g>
							</g>
						</g>
					</g>
				</g>
			</g>
		</g>
		<g>
			<g>
				<g>
					<g>
						<g>
							<g>
								<path style="fill:#C7CAD8;" d="M101.236,168.201c0.323,5.832,1.362,4.268,8.456,11.129c1.836,1.775,3.348,3.949,4.335,6.281
									l-20.249,18.753c-1.226-0.895-2.006-2.444-1.891-4.991c0.451-9.998-0.293-13.534-6.647-16.987
									c-6.355-3.453-12.376-4.68-9.224-12.346c3.152-7.666-5.919-11.709-10.766-14.747c-4.846-3.038-0.547-6.652-0.604-13.909
									c-0.057-7.257-7.488-4.93-9.566-13.737c-2.078-8.807,5.238-20.721-4.579-31.687c0,0,11.35,3.681,16.365,12.629
									c5.015,8.947,3.467,16.761,10.241,19.352c6.774,2.591,11.679,8.207,10.65,14.978c-1.029,6.771,2.517,9.681,8.356,13.524
									C101.951,160.285,100.914,162.37,101.236,168.201z"/>
							</g>
						</g>
					</g>
				</g>
			</g>
			<g>
				<g>
					<g>
						<g>
							<g>
								<g>
									<g>
										<g>
											<path style="fill:#9A9FB2;" d="M102.831,195.98L64.901,123.66c-0.179-0.34-0.047-0.763,0.293-0.942
												c0.004-0.002,0.008-0.004,0.012-0.006c0.339-0.17,0.755-0.038,0.933,0.3l37.755,71.983L102.831,195.98z"/>
										</g>
									</g>
								</g>
							</g>
						</g>
					</g>
				</g>
			</g>
		</g>
	</g>
	<g>
		<g>
			<g>
				<g>
					<path style="fill:#453F3F;" d="M300.445,96.356v341.165c0,10.695-8.667,19.361-19.361,19.361H111.19
						c-5.373,0-10.231-2.186-13.74-5.718c-3.474-3.503-5.621-8.322-5.621-13.644V96.356c0-10.695,8.667-19.361,19.362-19.361
						h169.893c3.161,0,6.146,0.757,8.783,2.102C296.147,82.297,300.445,88.823,300.445,96.356z"/>
				</g>
			</g>
			<g>
				<g>
					<path style="fill:#0C0B0B;" d="M310.205,96.356v341.165c0,10.695-8.667,19.361-19.361,19.361H120.95
						c-5.373,0-10.231-2.186-13.74-5.718c-3.474-3.503-5.621-8.322-5.621-13.644V96.356c0-10.695,8.667-19.361,19.361-19.361
						h169.893c3.161,0,6.146,0.757,8.783,2.102C305.908,82.297,310.205,88.823,310.205,96.356z"/>
				</g>
			</g>
			<g>
				<g>
					<path style="fill:#453F3F;" d="M93,183.437h-6.121c-0.531,0-0.962-0.431-0.962-0.962v-43.148c0-0.531,0.431-0.962,0.962-0.962
						H93V183.437z"/>
				</g>
				<g>
					<path style="fill:#453F3F;" d="M310.205,171.644h5.008c0.435,0,0.787-0.352,0.787-0.787V135.73
						c0-0.435-0.352-0.787-0.787-0.787h-5.008V171.644z"/>
				</g>
				<g>
					<path style="fill:#453F3F;" d="M93,234.625h-6.121c-0.531,0-0.962-0.431-0.962-0.962v-43.148c0-0.531,0.431-0.962,0.962-0.962
						H93V234.625z"/>
				</g>
			</g>
			<g>
				<g>
					<path style="fill:#FFFFFF;" d="M300.544,95.183v343.505c0,0.412-0.029,0.818-0.086,1.216c-0.589,4.141-4.148,7.315-8.443,7.315
						H119.777c-3.525,0-6.547-2.136-7.85-5.191c-0.326-0.761-0.543-1.577-0.632-2.43c-0.031-0.299-0.047-0.603-0.047-0.91V95.183
						c0-4.707,3.822-8.529,8.529-8.529h172.238c1.191,0,2.319,0.238,3.348,0.675C298.409,88.645,300.544,91.667,300.544,95.183z"/>
				</g>
			</g>
			<g>
				<path style="fill:#EFAD1A;" d="M283.848,324.526H127.906c-2.382,0-4.312-1.931-4.312-4.312v-2.503
					c0-2.382,1.931-4.312,4.312-4.312h155.941c2.382,0,4.312,1.931,4.312,4.312v2.503
					C288.16,322.596,286.229,324.526,283.848,324.526z"/>
			</g>
			<g>
				<path style="fill:#DFE2EF;" d="M300.458,347.659v92.245c-0.589,4.141-4.148,7.315-8.443,7.315H119.777
					c-3.525,0-6.547-2.136-7.85-5.191c-0.326-0.761-0.543-1.577-0.632-2.43v-91.938c0-7.602,6.161-13.763,13.763-13.763h161.638
					C294.297,333.897,300.458,340.058,300.458,347.659z"/>
			</g>
			<g>
				<g>
					<path style="fill:#FFFFFF;" d="M190.344,370.259h-52.485c-2.811,0-5.089-2.279-5.089-5.089v-2.953
						c0-2.811,2.279-5.089,5.089-5.089h52.485c2.811,0,5.089,2.279,5.089,5.089v2.953
						C195.433,367.981,193.154,370.259,190.344,370.259z"/>
				</g>
				<g>
					<path style="fill:#FFFFFF;" d="M190.344,399.099h-52.485c-2.811,0-5.089-2.279-5.089-5.089v-2.953
						c0-2.811,2.279-5.089,5.089-5.089h52.485c2.811,0,5.089,2.279,5.089,5.089v2.953
						C195.433,396.82,193.154,399.099,190.344,399.099z"/>
				</g>
				<g>
					<path style="fill:#FFFFFF;" d="M276.433,370.259h-52.485c-2.811,0-5.089-2.279-5.089-5.089v-2.953
						c0-2.811,2.279-5.089,5.089-5.089h52.485c2.811,0,5.089,2.279,5.089,5.089v2.953
						C281.523,367.981,279.244,370.259,276.433,370.259z"/>
				</g>
				<g>
					<path style="fill:#FFFFFF;" d="M276.433,399.099h-52.485c-2.811,0-5.089-2.279-5.089-5.089v-2.953
						c0-2.811,2.279-5.089,5.089-5.089h52.485c2.811,0,5.089,2.279,5.089,5.089v2.953
						C281.523,396.82,279.244,399.099,276.433,399.099z"/>
				</g>
			</g>
			<g>
				<path style="fill:#C7CAD8;" d="M252.018,344.048h-89.745c-0.877,0-1.589-0.711-1.589-1.589v-0.922
					c0-0.877,0.711-1.589,1.589-1.589h89.745c0.877,0,1.589,0.711,1.589,1.589v0.922
					C253.607,343.337,252.896,344.048,252.018,344.048z"/>
			</g>
			<g>
				<g>
					<path style="fill:#C7CAD8;" d="M300.544,95.182v18.108H111.248V95.182c0-4.707,3.822-8.529,8.529-8.529h172.237
						c1.192,0,2.319,0.24,3.349,0.677C298.409,88.645,300.544,91.667,300.544,95.182z"/>
				</g>
			</g>
			<circle style="fill:#EF6931;" cx="274.634" cy="100.367" r="2.964"/>
			<circle style="fill:#777D15;" cx="283.898" cy="100.367" r="2.964"/>
			<circle style="fill:#0C0B0B;" cx="292.431" cy="100.367" r="2.964"/>
			<g>
				<g>
					<path style="fill:#0C0B0B;" d="M251.682,103.715h-91.569c-7.022,0-12.766-5.745-12.766-12.767v-4.417
						c0-1.35,1.105-2.455,2.455-2.455h112.192c1.35,0,2.455,1.105,2.455,2.455v4.417C264.448,97.97,258.703,103.715,251.682,103.715
						z"/>
				</g>
				<g>
					<path style="fill:#453F3F;" d="M235.797,95.023H166.27c-0.18,0-0.328-0.147-0.328-0.328v-4.173c0-0.18,0.147-0.328,0.328-0.328
						h69.527c0.18,0,0.328,0.147,0.328,0.328v4.173C236.125,94.875,235.977,95.023,235.797,95.023z"/>
				</g>
				<g>
					<path style="fill:#453F3F;" d="M253.222,92.447c0,1.6-1.297,2.897-2.897,2.897c-1.6,0-2.897-1.297-2.897-2.897
						c0-1.6,1.297-2.897,2.897-2.897C251.925,89.55,253.222,90.847,253.222,92.447z"/>
				</g>
			</g>
		</g>
		<g>
			<g>
				<path style="fill:#EF6931;" d="M263.901,150.843H148.033c-4.357,0-7.89-3.533-7.89-7.89v-11.355c0-4.358,3.533-7.89,7.89-7.89
					h115.868c4.357,0,7.89,3.532,7.89,7.89v11.355C271.791,147.31,268.259,150.843,263.901,150.843z"/>
			</g>
			<g>
				<g>
					<polygon style="fill:#FFFFFF;" points="149.246,134.565 149.246,140.867 144.52,137.716 					"/>
				</g>
				<g>
					<polygon style="fill:#FFFFFF;" points="262.688,134.565 262.688,140.867 267.414,137.716 					"/>
				</g>
			</g>
			<g>
				<path style="fill:#FFFFFF;" d="M159.187,136.639c0-3.805,2.998-6.57,7.09-6.57c4.093,0,7.09,2.764,7.09,6.57
					c0,3.805-2.998,6.57-7.09,6.57C162.185,143.209,159.187,140.444,159.187,136.639z M169.096,136.639
					c0-1.956-1.257-3.141-2.818-3.141c-1.561,0-2.818,1.185-2.818,3.141c0,1.957,1.257,3.141,2.818,3.141
					C167.839,139.78,169.096,138.596,169.096,136.639z"/>
				<path style="fill:#FFFFFF;" d="M174.41,136.639c0-3.859,2.962-6.57,7-6.57c2.459,0,4.398,0.897,5.636,2.513l-2.675,2.387
					c-0.736-0.933-1.615-1.472-2.746-1.472c-1.759,0-2.944,1.221-2.944,3.141c0,1.921,1.185,3.141,2.944,3.141
					c1.131,0,2.01-0.538,2.746-1.472l2.675,2.387c-1.239,1.616-3.177,2.513-5.636,2.513
					C177.371,143.209,174.41,140.498,174.41,136.639z"/>
				<path style="fill:#FFFFFF;" d="M190.906,133.641h-3.68v-3.285h11.596v3.285h-3.68v9.28h-4.236V133.641z"/>
				<path style="fill:#FFFFFF;" d="M199.235,136.639c0-3.805,2.998-6.57,7.09-6.57c4.093,0,7.09,2.764,7.09,6.57
					c0,3.805-2.998,6.57-7.09,6.57C202.233,143.209,199.235,140.444,199.235,136.639z M209.144,136.639
					c0-1.956-1.257-3.141-2.818-3.141c-1.562,0-2.818,1.185-2.818,3.141c0,1.957,1.256,3.141,2.818,3.141
					C207.887,139.78,209.144,138.596,209.144,136.639z"/>
				<path style="fill:#FFFFFF;" d="M227.346,139.457c0,2.19-1.849,3.464-5.313,3.464h-7.072v-12.565h6.713
					c3.464,0,5.08,1.382,5.08,3.285c0,1.167-0.592,2.136-1.741,2.711C226.484,136.89,227.346,137.967,227.346,139.457z
					 M219.125,133.318v1.867h1.974c0.951,0,1.382-0.323,1.382-0.933c0-0.61-0.431-0.933-1.382-0.933H219.125z M223.074,138.972
					c0-0.646-0.467-0.987-1.4-0.987h-2.549v1.974h2.549C222.607,139.96,223.074,139.619,223.074,138.972z"/>
				<path style="fill:#FFFFFF;" d="M239.283,139.726v3.195h-10.447v-12.565h10.213v3.195h-6.049v1.472h5.313v3.052h-5.313v1.651
					H239.283z"/>
				<path style="fill:#FFFFFF;" d="M246.302,139.762h-1.149v3.159h-4.236v-12.565h6.049c3.5,0,5.726,1.831,5.726,4.739
					c0,1.813-0.862,3.177-2.369,3.949l2.639,3.877h-4.523L246.302,139.762z M246.697,133.623h-1.544v2.944h1.544
					c1.167,0,1.723-0.557,1.723-1.472C248.42,134.18,247.863,133.623,246.697,133.623z"/>
			</g>
		</g>
		<g>
			<g>
				<g>
					<rect x="239.005" y="180.068" style="fill:#9A9FB2;" width="20.302" height="20.302"/>
				</g>
				<g>
					<rect x="210.074" y="180.068" style="fill:#C7CAD8;" width="20.302" height="20.302"/>
				</g>
				<g>
					<rect x="267.858" y="180.068" style="fill:#C7CAD8;" width="20.302" height="20.302"/>
				</g>
			</g>
			<g>
				<g>
					<rect x="123.594" y="212.766" style="fill:#777D15;" width="20.302" height="20.302"/>
				</g>
				<g>
					<g>
						<path style="fill:#FFFFFF;" d="M130.238,228.539c-0.058,0-0.117-0.005-0.176-0.016c-0.294-0.054-0.548-0.241-0.686-0.506
							l-1.956-3.742c-0.249-0.476-0.065-1.064,0.411-1.313c0.476-0.249,1.064-0.065,1.313,0.411l1.379,2.638l9.216-8.179
							c0.402-0.357,1.017-0.32,1.373,0.082c0.357,0.402,0.32,1.017-0.082,1.373l-10.148,9.006
							C130.704,228.453,130.474,228.539,130.238,228.539z"/>
					</g>
				</g>
				<g>
					<rect x="152.447" y="212.766" style="fill:#C7CAD8;" width="20.302" height="20.302"/>
				</g>
				<g>
					<rect x="181.299" y="212.766" style="fill:#777D15;" width="20.302" height="20.302"/>
				</g>
				<g>
					<g>
						<path style="fill:#FFFFFF;" d="M188.217,228.539c-0.059,0-0.117-0.005-0.176-0.016c-0.295-0.054-0.548-0.241-0.686-0.506
							l-1.956-3.742c-0.249-0.476-0.065-1.064,0.411-1.313c0.476-0.249,1.064-0.065,1.313,0.411l1.379,2.638l9.216-8.179
							c0.402-0.357,1.017-0.32,1.373,0.082c0.357,0.402,0.32,1.017-0.082,1.373l-10.148,9.006
							C188.683,228.453,188.453,228.539,188.217,228.539z"/>
					</g>
				</g>
				<g>
					<rect x="210.152" y="212.766" style="fill:#C7CAD8;" width="20.302" height="20.302"/>
				</g>
				<g>
					<rect x="239.005" y="212.766" style="fill:#C7CAD8;" width="20.302" height="20.302"/>
				</g>
				<g>
					<rect x="267.858" y="212.766" style="fill:#C7CAD8;" width="20.302" height="20.302"/>
				</g>
			</g>
			<g>
				<g>
					<rect x="123.594" y="245.465" style="fill:#C7CAD8;" width="20.302" height="20.302"/>
				</g>
				<g>
					<rect x="152.447" y="245.465" style="fill:#9A9FB2;" width="20.302" height="20.302"/>
				</g>
				<g>
					<rect x="181.299" y="245.465" style="fill:#9A9FB2;" width="20.302" height="20.302"/>
				</g>
				<g>
					<rect x="210.152" y="245.465" style="fill:#C7CAD8;" width="20.302" height="20.302"/>
				</g>
				<g>
					<rect x="239.005" y="245.465" style="fill:#EF6931;" width="20.302" height="20.302"/>
				</g>
				<g>
					<path style="fill:#FFFFFF;" d="M243.14,260.754c2.113-1.337,3.917-2.787,5.414-4.167c-2.952-3.59-4.313-6.497-4.396-6.676
						c-0.212-0.46-0.01-1.005,0.45-1.217c0.46-0.213,1.006-0.011,1.218,0.45c0.019,0.041,1.3,2.768,4.059,6.157
						c2.688-2.724,4.055-4.907,4.077-4.943c0.266-0.431,0.831-0.566,1.263-0.301c0.432,0.266,0.567,0.831,0.301,1.263
						c-0.096,0.156-1.557,2.499-4.438,5.39c1.193,1.332,2.601,2.719,4.236,4.053c0.393,0.321,0.452,0.899,0.131,1.292
						c-0.181,0.222-0.446,0.338-0.712,0.338c-0.204,0-0.41-0.068-0.58-0.207c-1.702-1.389-3.165-2.823-4.406-4.199
						c-1.557,1.428-3.433,2.925-5.636,4.32c-0.153,0.096-0.322,0.143-0.49,0.143c-0.304,0-0.602-0.151-0.777-0.427
						C242.584,261.592,242.712,261.025,243.14,260.754z"/>
				</g>
				<g>
					<rect x="267.858" y="245.465" style="fill:#C7CAD8;" width="20.302" height="20.302"/>
				</g>
			</g>
			<g>
				<g>
					<rect x="123.594" y="278.163" style="fill:#C7CAD8;" width="20.302" height="20.302"/>
				</g>
				<g>
					<rect x="152.447" y="278.163" style="fill:#EF6931;" width="20.302" height="20.302"/>
				</g>
				<g>
					<path style="fill:#FFFFFF;" d="M156.465,293.55c2.113-1.337,3.917-2.786,5.414-4.167c-2.952-3.59-4.313-6.497-4.395-6.676
						c-0.212-0.46-0.01-1.005,0.45-1.217c0.46-0.213,1.006-0.011,1.218,0.449c0.019,0.041,1.3,2.768,4.059,6.157
						c2.688-2.724,4.055-4.907,4.077-4.943c0.265-0.431,0.831-0.566,1.263-0.301c0.432,0.266,0.567,0.831,0.301,1.263
						c-0.096,0.156-1.557,2.499-4.438,5.391c1.193,1.332,2.601,2.719,4.236,4.052c0.393,0.321,0.452,0.899,0.131,1.292
						c-0.181,0.222-0.446,0.338-0.712,0.338c-0.204,0-0.41-0.068-0.58-0.207c-1.702-1.389-3.165-2.823-4.406-4.199
						c-1.557,1.428-3.432,2.925-5.636,4.32c-0.152,0.096-0.322,0.142-0.49,0.142c-0.304,0-0.602-0.151-0.777-0.427
						C155.909,294.388,156.037,293.821,156.465,293.55z"/>
				</g>
				<g>
					<rect x="181.299" y="278.163" style="fill:#C7CAD8;" width="20.302" height="20.302"/>
				</g>
				<g>
					<rect x="210.152" y="278.163" style="fill:#C7CAD8;" width="20.302" height="20.302"/>
				</g>
				<g>
					<rect x="239.005" y="278.163" style="fill:#9A9FB2;" width="20.302" height="20.302"/>
				</g>
				<g>
					<rect x="267.858" y="278.163" style="fill:#9A9FB2;" width="20.302" height="20.302"/>
				</g>
			</g>
		</g>
		<g>
			<g>
				<rect x="123.594" y="166.598" style="fill:#777D15;" width="20.302" height="4.49"/>
			</g>
			<g>
				<rect x="152.486" y="166.598" style="fill:#EFAD1A;" width="20.302" height="4.49"/>
			</g>
			<g>
				<rect x="181.377" y="166.598" style="fill:#777D15;" width="20.302" height="4.49"/>
			</g>
			<g>
				<rect x="210.074" y="166.598" style="fill:#EFAD1A;" width="20.302" height="4.49"/>
			</g>
			<g>
				<rect x="238.966" y="166.598" style="fill:#777D15;" width="20.302" height="4.49"/>
			</g>
			<g>
				<rect x="267.858" y="166.598" style="fill:#EFAD1A;" width="20.302" height="4.49"/>
			</g>
		</g>
		<g>
			<rect x="108.562" y="413.154" style="fill:#0C0B0B;" width="194.043" height="35.139"/>
		</g>
		<g>
			<circle style="fill:#453F3F;" cx="205.096" cy="432.383" r="13.567"/>
		</g>
	</g>
	<g>
		<g>
			<g>
				<g>
					<g>
						<path style="fill:#777D15;" d="M355.318,155.145c-0.051,1.144-0.135,2.22-0.221,3.321c-0.096,1.091-0.195,2.183-0.312,3.27
							c-0.107,1.089-0.25,2.173-0.375,3.258l-0.433,3.248c-0.611,4.328-1.37,8.636-2.247,12.943
							c-0.435,2.153-0.904,4.31-1.417,6.465c-0.508,2.155-1.06,4.312-1.655,6.483c-0.601,2.171-1.24,4.349-1.966,6.563l-0.562,1.675
							l-0.607,1.695l-0.656,1.736l-0.074,0.187l-0.219,0.545c-0.107,0.248-0.217,0.494-0.328,0.738
							c-0.224,0.478-0.461,0.945-0.705,1.39c-0.982,1.78-2.089,3.264-3.215,4.547c-1.125,1.285-2.276,2.374-3.422,3.342
							c-1.144,0.97-2.29,1.819-3.428,2.592c-0.291,0.199-0.582,0.392-0.873,0.578c-0.845,0.549-1.691,1.052-2.528,1.532
							c-1.128,0.64-2.255,1.224-3.373,1.774c-1.124,0.541-2.243,1.044-3.358,1.519c-2.225,0.96-4.457,1.761-6.67,2.51
							c-4.445,1.456-8.873,2.587-13.322,3.461c-2.224,0.433-4.451,0.81-6.69,1.111c-1.119,0.156-2.243,0.283-3.371,0.4
							c-0.564,0.055-1.13,0.111-1.7,0.154l-0.863,0.064l-0.437,0.027c-0.15,0.01-0.289,0.016-0.472,0.031
							c-3.615,0.314-6.803-2.362-7.117-5.979c-0.228-2.653,1.15-5.074,3.326-6.3l0.89-0.498c0.078-0.043,0.203-0.1,0.312-0.15
							l0.346-0.162l0.703-0.32l1.421-0.642l2.85-1.285c1.896-0.863,3.785-1.716,5.653-2.589c3.737-1.739,7.405-3.51,10.887-5.378
							c1.745-0.916,3.428-1.888,5.046-2.85c0.806-0.486,1.589-0.984,2.343-1.488c0.757-0.494,1.482-1.002,2.171-1.507
							c1.372-1.007,2.596-2.042,3.5-2.981c0.451-0.468,0.814-0.912,1.066-1.275c0.252-0.365,0.385-0.65,0.41-0.767
							c0.006-0.029,0.004-0.049,0.002-0.059c-0.006-0.002-0.01-0.004-0.012-0.004c-0.006,0.002-0.008,0.004-0.012,0.006
							l-0.004,0.004c0,0,0-0.006,0.008-0.029l0.412-1.306l0.406-1.363l0.404-1.4c0.531-1.895,1.056-3.852,1.57-5.831l3.106-12.076
							c1.048-4.066,2.108-8.158,3.245-12.242l0.863-3.065c0.302-1.019,0.584-2.042,0.894-3.059c0.303-1.021,0.613-2.038,0.927-3.053
							c0.322-1.009,0.644-2.044,0.986-3.012l0.061-0.172c1.786-5.052,7.328-7.699,12.38-5.913
							C352.983,147.02,355.501,150.992,355.318,155.145z"/>
					</g>
				</g>
			</g>
			<g>
				<path style="fill:#424208;" d="M344.792,205.988l-0.219,0.545c-0.107,0.248-0.217,0.494-0.328,0.738
					c-0.224,0.478-0.461,0.945-0.705,1.39c-0.982,1.78-2.089,3.264-3.215,4.547c-1.125,1.285-2.276,2.374-3.422,3.342
					c-1.144,0.97-2.29,1.819-3.428,2.592c-0.291,0.199-0.582,0.392-0.873,0.578C333.454,208.917,341.25,206.519,344.792,205.988z"/>
			</g>
			<g>
				<path style="fill:#424208;" d="M297.14,231.605c-0.048,0-0.097-0.006-0.146-0.019c-0.313-0.08-0.503-0.399-0.422-0.712
					c2.045-7.994-2.383-13.684-2.428-13.74c-0.201-0.253-0.16-0.621,0.093-0.823c0.253-0.202,0.621-0.161,0.822,0.092
					c0.199,0.248,4.842,6.183,2.648,14.762C297.639,231.428,297.401,231.605,297.14,231.605z"/>
			</g>
			<g>
				<path style="fill:#424208;" d="M291.44,228.965c-1.4,0-2.447-0.087-2.55-0.096c-0.322-0.028-0.561-0.312-0.533-0.634
					c0.028-0.322,0.313-0.559,0.634-0.533c0.058,0.006,5.87,0.489,8.442-0.847c0.287-0.149,0.64-0.037,0.79,0.25
					c0.149,0.287,0.037,0.64-0.25,0.79C296.269,228.78,293.48,228.965,291.44,228.965z"/>
			</g>
			<g>
				<g>
					<g>
						<path style="fill:#E36C57;" d="M264.342,221.536c0,0,13.137,12.27,23.303,11.417c1.536-0.129,2.765-1.334,2.97-2.862
							l0.851-6.319C291.467,223.772,274.391,216.32,264.342,221.536z"/>
					</g>
				</g>
				<g>
					<g>
						<g>
							<g>
								<g>
									<path style="fill:#453F3F;" d="M294.421,227.882l-0.439,0.843c-0.229,0.441-0.713,0.685-1.204,0.607
										c-4.553-0.727-26.668-4.272-30.661-5.223c-0.37-0.088-0.671-0.356-0.806-0.712l-4.453-11.731
										c-0.108-0.283-0.1-0.597,0.022-0.875l0.552-1.254l4.917,12.57L294.421,227.882z"/>
								</g>
							</g>
						</g>
					</g>
					<g>
						<g>
							<g>
								<g>
									<path style="fill:#0C0B0B;" d="M294.386,227.692l-4.082-11.815c-0.16-0.462-0.845-0.938-1.531-1.062l-30.414-5.496
										c-0.686-0.124-1.112,0.15-0.953,0.613l4.082,11.815c0.16,0.463,0.845,0.938,1.531,1.062l30.414,5.497
										C294.119,228.429,294.545,228.154,294.386,227.692z"/>
								</g>
							</g>
						</g>
					</g>
					<g>
						<g>
							<path style="fill:#453F3F;" d="M287.849,224.999l-2.969-8.592c-0.16-0.462-0.845-0.938-1.531-1.062l-22.553-4.076
								c-0.686-0.124-1.112,0.15-0.953,0.613l2.969,8.592c0.16,0.462,0.845,0.938,1.531,1.062l22.553,4.076
								C287.582,225.736,288.008,225.462,287.849,224.999z"/>
						</g>
					</g>
					<g>
						<g>
							<g>
								<g>
									<path style="fill:#453F3F;" d="M289.855,222.546c1.058,0.191,1.717-0.232,1.47-0.946c-0.247-0.714-1.305-1.447-2.363-1.639
										c-1.059-0.191-1.717,0.232-1.47,0.946C287.738,221.621,288.796,222.354,289.855,222.546z"/>
								</g>
							</g>
						</g>
					</g>
				</g>
				<g>
					<g>
						<g>
							<g>
								<path style="fill:#E36C57;" d="M283.436,214.109c0,0-0.799-5.017-4.564-5.323c-3.765-0.306-9.31,2.557-9.31,2.557
									c-1.004,2.908,3.615,2.549,9.154,1.654L283.436,214.109z"/>
							</g>
						</g>
					</g>
				</g>
				<g>
					<g>
						<g>
							<g>
								<g>
									<g>
										<g>
											<path style="fill:#E36C57;" d="M280.015,227.263c0,0-1.877,2.896-3.708,1.958c-1.832-0.939-2.684-5.723-2.869-7.422
												c-0.185-1.699,2.601,1.128,3.228,2.803c0.37,0.988,1.325,2.327,1.325,2.327L280.015,227.263z"/>
										</g>
									</g>
								</g>
							</g>
						</g>
					</g>
					<g>
						<g>
							<g>
								<g>
									<g>
										<g>
											<path style="fill:#E36C57;" d="M274.071,225.847c0,0-2.045,2.941-4.22,1.827c-2.174-1.114-3.185-6.793-3.404-8.81
												c-0.219-2.017,3.23,1.292,3.832,3.327c0.602,2.036,1.68,2.421,1.68,2.421L274.071,225.847z"/>
										</g>
									</g>
								</g>
							</g>
						</g>
					</g>
					<g>
						<g>
							<g>
								<g>
									<g>
										<g>
											<path style="fill:#E36C57;" d="M270.952,225.257c0,0-1.807,2.598-3.728,1.614c-1.921-0.984-2.814-6-3.008-7.782
												c-0.194-1.782,2.853,1.141,3.385,2.939c0.532,1.798,1.484,2.139,1.484,2.139L270.952,225.257z"/>
										</g>
									</g>
								</g>
							</g>
						</g>
					</g>
					<g>
						<g>
							<g>
								<g>
									<g>
										<g>
											<path style="fill:#E36C57;" d="M277.744,227.332c0,0-2.045,2.941-4.219,1.827c-2.174-1.114-3.185-6.792-3.405-8.81
												c-0.219-2.017,3.23,1.292,3.832,3.327c0.602,2.035,1.68,2.421,1.68,2.421L277.744,227.332z"/>
										</g>
									</g>
								</g>
							</g>
						</g>
					</g>
				</g>
			</g>
			<g>
				<g>
					<g>
						<path style="fill:#424208;" d="M335.056,203.249c-0.086,0-0.173-0.019-0.256-0.058c-4.198-1.982-10.998-3.135-11.066-3.146
							c-0.327-0.055-0.548-0.364-0.493-0.691c0.055-0.327,0.363-0.548,0.691-0.493c0.285,0.048,7.031,1.19,11.381,3.244
							c0.3,0.142,0.428,0.5,0.287,0.8C335.497,203.122,335.282,203.249,335.056,203.249z"/>
					</g>
				</g>
			</g>
			<g>
				<g>
					<g>
						<path style="fill:#424208;" d="M326.011,200.477c-0.239,0-0.464-0.143-0.558-0.378c-0.123-0.308,0.027-0.658,0.335-0.781
							c2.038-0.814,5.445-1.607,5.59-1.64c0.322-0.076,0.646,0.126,0.72,0.45c0.075,0.323-0.126,0.646-0.45,0.721
							c-0.034,0.008-3.463,0.805-5.415,1.585C326.161,200.463,326.085,200.477,326.011,200.477z"/>
					</g>
				</g>
			</g>
		</g>
		<g>
			<g>
				<g>
					<g>
						<g>
							<g>
								<g>
									<g>
										<g>
											<g>
												<g>
													<g>
														<g>
															<polygon style="fill:#E36C57;" points="403.775,423.57 404.379,437.682 418.735,437.954 417.701,424.688 
																															"/>
														</g>
													</g>
												</g>
											</g>
										</g>
									</g>
								</g>
							</g>
						</g>
					</g>
				</g>
				<g>
					<g>
						<g>
							<g>
								<path style="fill:#EFAD1A;" d="M421.986,453.878c0,0.111-0.003,0.22-0.005,0.326c-0.011,0.495-0.032,0.94-0.053,1.322
									c-0.051,0.84-0.111,1.356-0.111,1.356h-27.869c0,0-0.137-1.078-0.032-2.678c0.183-2.847,1.128-7.345,4.977-10.317
									c5.269-4.074,3.234-3.224,4.315-5.081c0.122-0.206,1.07-3.361,1.171-3.579c0.906-1.928,1.74-2.839,6.733-2.839
									c6.622,0,7.205,3.213,7.912,4.906c0.292,0.702,0.691,2.177,1.102,3.934c0.167,0.705,0.334,1.457,0.498,2.222
									c0.408,1.92,0.789,3.926,1.049,5.526C421.949,450.689,422.008,452.453,421.986,453.878z"/>
							</g>
						</g>
						<g>
							<g>
								<g>
									<g>
										<g>
											<g>
												<g>
													<g>
														<g>
															<g>
																<g>
																	<g>
																		<g>
																			<g>
																				<path style="fill:#D48100;" d="M421.986,453.878c0,0.111-0.003,0.22-0.005,0.326
																					c-0.011,0.495-0.032,0.94-0.053,1.322c-1.359-0.954-2.328-2.212-2.895-3.754
																					c-1.724-4.697,0.927-10.333,1.038-10.572l0.056,0.026c0.167,0.705,0.334,1.457,0.498,2.222
																					c-0.628,1.918-1.351,5.142-0.347,7.87C420.643,452.313,421.216,453.168,421.986,453.878z"/>
																			</g>
																		</g>
																	</g>
																</g>
															</g>
														</g>
													</g>
												</g>
											</g>
										</g>
									</g>
								</g>
							</g>
						</g>
						<g>
							<g>
								<g>
									<g>
										<g>
											<g>
												<g>
													<g>
														<g>
															<g>
																<g>
																	<g>
																		<g>
																			<path style="fill:#D48100;" d="M421.981,454.204c-0.037,1.587-0.164,2.678-0.164,2.678h-27.869
																				c0,0-0.137-1.078-0.032-2.678H421.981z"/>
																		</g>
																	</g>
																</g>
															</g>
														</g>
													</g>
												</g>
											</g>
										</g>
									</g>
								</g>
							</g>
						</g>
					</g>
					<g>
						<g>
							<g>
								<g>
									<g>
										<g>
											<g>
												<g>
													<g>
														<g>
															<g>
																<g>
																	<path style="fill:#D48100;" d="M412.032,441.075c-0.066,0-0.133-0.008-0.2-0.025
																		c-3.544-0.918-6.432-0.141-6.461-0.133c-0.423,0.117-0.861-0.131-0.978-0.554
																		c-0.117-0.423,0.131-0.861,0.554-0.978c0.134-0.037,3.331-0.897,7.283,0.126c0.425,0.11,0.68,0.544,0.57,0.968
																		C412.708,440.837,412.385,441.075,412.032,441.075z"/>
																</g>
															</g>
														</g>
													</g>
												</g>
											</g>
										</g>
									</g>
								</g>
							</g>
						</g>
					</g>
					<g>
						<g>
							<g>
								<g>
									<g>
										<g>
											<g>
												<g>
													<g>
														<g>
															<g>
																<g>
																	<g>
																		<path style="fill:#D48100;" d="M412.49,437.864c-0.066,0-0.133-0.008-0.2-0.025
																			c-3.545-0.918-6.432-0.141-6.461-0.133c-0.423,0.117-0.861-0.131-0.978-0.554
																			c-0.117-0.423,0.131-0.861,0.554-0.978c0.134-0.037,3.331-0.897,7.283,0.126c0.425,0.11,0.68,0.544,0.57,0.968
																			C413.166,437.626,412.843,437.864,412.49,437.864z"/>
																	</g>
																</g>
															</g>
														</g>
													</g>
												</g>
											</g>
										</g>
									</g>
								</g>
							</g>
						</g>
					</g>
					<g>
						<g>
							<g>
								<g>
									<g>
										<g>
											<g>
												<g>
													<g>
														<g>
															<g>
																<g>
																	<path style="fill:#D48100;" d="M410.84,443.593c-0.066,0-0.133-0.008-0.2-0.026
																		c-3.522-0.912-6.433-0.14-6.462-0.133c-0.423,0.116-0.86-0.134-0.976-0.556c-0.116-0.422,0.131-0.859,0.554-0.976
																		c0.134-0.037,3.331-0.897,7.283,0.126c0.425,0.11,0.68,0.544,0.57,0.969
																		C411.516,443.355,411.194,443.593,410.84,443.593z"/>
																</g>
															</g>
														</g>
													</g>
												</g>
											</g>
										</g>
									</g>
								</g>
							</g>
						</g>
					</g>
					<g>
						<g>
							<g>
								<g>
									<g>
										<g>
											<g>
												<g>
													<g>
														<g>
															<g>
																<g>
																	<g>
																		<path style="fill:#D48100;" d="M409.44,446.456c-0.066,0-0.133-0.008-0.2-0.026
																			c-3.521-0.912-6.433-0.141-6.462-0.133c-0.423,0.116-0.86-0.133-0.976-0.556
																			c-0.116-0.423,0.132-0.859,0.554-0.976c0.134-0.037,3.331-0.897,7.283,0.126c0.425,0.11,0.68,0.544,0.57,0.969
																			C410.116,446.218,409.793,446.456,409.44,446.456z"/>
																	</g>
																</g>
															</g>
														</g>
													</g>
												</g>
											</g>
										</g>
									</g>
								</g>
							</g>
						</g>
					</g>
				</g>
			</g>
			<g>
				<g>
					<g>
						<g>
							<g>
								<g>
									<g>
										<g>
											<polygon style="fill:#E36C57;" points="361.613,417.358 361.613,435.182 347.75,436.148 344.949,416.155 											"/>
										</g>
									</g>
								</g>
							</g>
						</g>
					</g>
					<g>
						<g>
							<g>
								<path style="fill:#EFAD1A;" d="M315.418,456.882l49.583-0.044c0.368-0.67,0.568-1.621,0.65-2.754
									c0.306-4.194-1.037-10.887-1.696-15.107c-0.08-0.493-0.148-0.953-0.202-1.369c-0.092-0.706-0.149-1.293-0.149-1.724
									c-0.003-3.444-3.051-2.851-3.051-2.851c-5.013,4.924-10.701-2.449-14.016-0.026c0,0-1.428,1.025-5.362,4.57
									c-3.931,3.545-10.625,5.889-16.322,8.278c-7.355,3.082-9.439,6.156-9.845,8.273
									C314.688,455.805,315.418,456.882,315.418,456.882z"/>
							</g>
						</g>
						<g>
							<g>
								<g>
									<g>
										<g>
											<g>
												<g>
													<path style="fill:#D48100;" d="M315.418,456.882l49.583-0.044c0.368-0.67,0.568-1.621,0.65-2.754l-50.643,0.045
														C314.688,455.805,315.418,456.882,315.418,456.882z"/>
												</g>
											</g>
										</g>
									</g>
								</g>
							</g>
						</g>
						<g>
							<g>
								<g>
									<g>
										<g>
											<g>
												<g>
													<g>
														<path style="fill:#D48100;" d="M359.942,456.842l1.473-0.001c-1.471-1.678-2.849-4.254-2.672-7.937
															c0.235-4.899,3.171-8.205,5.212-9.927c-0.08-0.493-0.148-0.953-0.202-1.369c-2.2,1.684-5.907,5.371-6.191,11.238
															C357.394,452.365,358.551,454.987,359.942,456.842z"/>
													</g>
												</g>
											</g>
										</g>
									</g>
								</g>
							</g>
						</g>
						<g>
							<g>
								<g>
									<g>
										<g>
											<g>
												<g>
													<path style="fill:#D48100;" d="M342.018,440.502c0.367,0,0.7-0.249,0.792-0.621c0.108-0.438-0.159-0.881-0.597-0.989
														l-3.098-0.766c-0.438-0.109-0.881,0.159-0.989,0.597c-0.108,0.438,0.159,0.881,0.597,0.989l3.098,0.766
														C341.887,440.494,341.953,440.502,342.018,440.502z"/>
												</g>
											</g>
										</g>
									</g>
								</g>
							</g>
						</g>
						<g>
							<g>
								<g>
									<g>
										<g>
											<g>
												<g>
													<path style="fill:#D48100;" d="M344.843,438.101c0.367,0,0.7-0.249,0.792-0.621c0.108-0.438-0.159-0.881-0.597-0.989
														l-3.098-0.766c-0.438-0.109-0.881,0.159-0.99,0.597c-0.108,0.438,0.159,0.881,0.597,0.989l3.098,0.766
														C344.711,438.093,344.778,438.101,344.843,438.101z"/>
												</g>
											</g>
										</g>
									</g>
								</g>
							</g>
						</g>
						<g>
							<g>
								<g>
									<g>
										<g>
											<g>
												<g>
													<path style="fill:#D48100;" d="M338.923,442.305c0.367,0,0.7-0.249,0.792-0.621c0.108-0.438-0.159-0.881-0.597-0.989
														l-3.098-0.766c-0.438-0.109-0.881,0.159-0.989,0.597c-0.109,0.438,0.159,0.881,0.597,0.989l3.098,0.766
														C338.791,442.298,338.858,442.306,338.923,442.305z"/>
												</g>
											</g>
										</g>
									</g>
								</g>
							</g>
						</g>
						<g>
							<g>
								<g>
									<g>
										<g>
											<g>
												<g>
													<path style="fill:#D48100;" d="M335.827,444.039c0.366,0,0.7-0.249,0.792-0.621c0.108-0.438-0.159-0.881-0.597-0.989
														l-3.098-0.766c-0.438-0.109-0.881,0.159-0.989,0.597c-0.108,0.438,0.159,0.881,0.597,0.989l3.098,0.766
														C335.695,444.031,335.762,444.039,335.827,444.039z"/>
												</g>
											</g>
										</g>
									</g>
								</g>
							</g>
						</g>
						<g>
							<g>
								<g>
									<g>
										<g>
											<g>
												<g>
													<path style="fill:#D48100;" d="M332.451,445.642c0.366,0,0.7-0.249,0.792-0.621c0.108-0.438-0.159-0.881-0.597-0.989
														l-3.098-0.766c-0.438-0.108-0.881,0.159-0.989,0.597c-0.109,0.438,0.159,0.881,0.597,0.989l3.098,0.766
														C332.32,445.635,332.386,445.643,332.451,445.642z"/>
												</g>
											</g>
										</g>
									</g>
								</g>
							</g>
						</g>
						<g>
							<g>
								<g>
									<g>
										<g>
											<g>
												<g>
													<path style="fill:#D48100;" d="M328.79,447.011c0.366,0,0.7-0.249,0.792-0.621c0.108-0.438-0.159-0.881-0.597-0.989
														l-3.098-0.766c-0.438-0.109-0.881,0.159-0.989,0.597c-0.108,0.438,0.159,0.881,0.597,0.989l3.098,0.766
														C328.658,447.003,328.725,447.011,328.79,447.011z"/>
												</g>
											</g>
										</g>
									</g>
								</g>
							</g>
						</g>
					</g>
				</g>
				<g>
					<g>
						<g>
							<g>
								<g>
									<path style="fill:#0C0B0B;" d="M360.805,365.655c1.431,23.709,3.15,55.444,3.15,55.444l-22.034-0.268
										c0,0-10.13-39.369-16.35-91.931l30.14-74.798l34.424,15.613l-35.37,69.318c-0.042,0.009-0.081,0.019-0.123,0.028
										C357.189,344.491,360.052,353.177,360.805,365.655z"/>
								</g>
							</g>
						</g>
					</g>
					<g>
						<g>
							<g>
								<g>
									<path style="fill:#453F3F;" d="M362.7,414.203h-21.724c-0.419,0-0.758-0.339-0.758-0.758c0-0.419,0.339-0.758,0.758-0.758
										H362.7c0.419,0,0.758,0.339,0.758,0.758C363.458,413.863,363.118,414.203,362.7,414.203z"/>
								</g>
							</g>
						</g>
					</g>
					<g>
						<g>
							<g>
								<g>
									<path style="fill:#453F3F;" d="M334.928,333.12c-5.462,0-8.858-3.387-9.002-3.535c-0.294-0.299-0.29-0.779,0.009-1.072
										c0.298-0.294,0.777-0.29,1.071,0.008c0.046,0.046,3.275,3.221,8.258,3.078c0.42-0.015,0.768,0.318,0.78,0.736
										c0.012,0.419-0.318,0.768-0.736,0.78C335.18,333.119,335.053,333.12,334.928,333.12z"/>
								</g>
							</g>
						</g>
					</g>
					<g>
						<g>
							<g>
								<g>
									<path style="fill:#453F3F;" d="M360.012,413.617c-0.392,0-0.723-0.301-0.755-0.698c-0.028-0.352-2.796-35.344-3.256-47.236
										c-0.454-11.757-6.333-28.234-6.393-28.399c-0.072-0.201-0.057-0.422,0.043-0.61c7.866-14.914,31.823-63.268,32.064-63.755
										c0.186-0.375,0.641-0.529,1.016-0.343c0.375,0.186,0.529,0.641,0.343,1.016c-0.24,0.484-23.898,48.235-31.927,63.496
										c0.825,2.368,5.941,17.458,6.37,28.537c0.458,11.862,3.224,46.823,3.252,47.174c0.033,0.418-0.278,0.783-0.696,0.816
										C360.052,413.616,360.032,413.617,360.012,413.617z"/>
								</g>
							</g>
						</g>
					</g>
				</g>
			</g>
			<g>
				<g>
					<g>
						<g>
							<path style="fill:#0C0B0B;" d="M419.732,424.88h-18.192c-3.247-30.489-10.62-82.953-10.62-82.953
								c-6.137-20.026-1.687-88.68-1.687-88.68l36.93-2.502c0,0,0.247,7.747-0.988,31.371c-0.824,15.778-5.371,45.962-6.081,59.516
								c5.221,14.88,4.007,26.649,3.689,41.837C422.429,400.399,419.732,424.88,419.732,424.88z"/>
						</g>
					</g>
				</g>
			</g>
			<g>
				<g>
					<g>
						<g>
							<path style="fill:#453F3F;" d="M401.326,341.466c-4.969,2.268-9.464,0.596-9.657,0.522c-0.391-0.15-0.587-0.588-0.437-0.979
								c0.149-0.391,0.587-0.587,0.978-0.438c0.061,0.023,4.317,1.571,8.791-0.629c0.376-0.188,0.83-0.03,1.015,0.346
								c0.184,0.376,0.03,0.83-0.346,1.015C401.554,341.36,401.439,341.414,401.326,341.466z"/>
						</g>
					</g>
				</g>
			</g>
			<g>
				<g>
					<g>
						<g>
							<path style="fill:#453F3F;" d="M401.578,419.305c-0.406-0.034-0.715-0.384-0.694-0.794c0.022-0.418,0.378-0.74,0.796-0.718
								l17.905,0.917c0.416,0.027,0.74,0.378,0.719,0.796c-0.022,0.418-0.378,0.74-0.796,0.719l-17.905-0.917
								C401.594,419.306,401.586,419.305,401.578,419.305z"/>
						</g>
					</g>
				</g>
			</g>
			<g>
				<g>
					<g>
						<g>
							<g>
								<path style="fill:#0C0B0B;" d="M354.175,242.508c0,0-1.907,26.231,14.525,28.734c11.521,1.755,40.409,1,53.414-7.136
									c9.255-5.79-0.253-31.491-0.253-31.491L354.175,242.508z"/>
							</g>
						</g>
					</g>
				</g>
				<g>
					<g>
						<g>
							<g>
								<path style="fill:#453F3F;" d="M353.159,263.006c-0.341,0-0.651-0.232-0.736-0.578c-0.1-0.406,0.149-0.816,0.554-0.916l0,0
									c0.035-0.009,3.552-0.917,5.196-3.973c1.131-2.102,1.144-4.757,0.038-7.89c-0.14-0.395,0.068-0.828,0.462-0.967
									c0.395-0.139,0.828,0.068,0.967,0.463c1.257,3.56,1.209,6.631-0.141,9.128c-1.973,3.649-5.991,4.669-6.161,4.711
									C353.279,262.999,353.218,263.006,353.159,263.006z"/>
							</g>
						</g>
					</g>
				</g>
				<g>
					<g>
						<g>
							<g>
								<path style="fill:#453F3F;" d="M419.592,260.396c-6.735,0-10.972-3.528-13.437-6.749c-3.069-4.012-4.064-8.303-4.104-8.483
									c-0.092-0.408,0.164-0.814,0.572-0.906c0.409-0.093,0.814,0.164,0.906,0.572l0,0c0.009,0.041,0.977,4.188,3.86,7.936
									c3.801,4.942,9,6.906,15.453,5.838c0.414-0.068,0.803,0.211,0.872,0.624c0.068,0.413-0.211,0.804-0.624,0.872
									C421.855,260.301,420.69,260.396,419.592,260.396z"/>
							</g>
						</g>
					</g>
				</g>
				<g>
					<g>
						<g>
							<path style="fill:#FFFFFF;" d="M416.513,267.477c0.526,0,1.061-0.053,1.604-0.164c2.156-0.44,3.781-1.655,4.829-3.613
								c4.641-8.669-3.817-29.674-4.18-30.564c-0.186-0.458-0.708-0.678-1.166-0.492c-0.458,0.187-0.678,0.709-0.492,1.167
								c0.086,0.21,8.506,21.113,4.259,29.045c-0.796,1.486-1.976,2.37-3.608,2.703c-5.829,1.188-10.743-6.351-13.84-12.885
								c-3.472-7.326-5.475-15.075-5.495-15.153c-0.123-0.479-0.609-0.767-1.089-0.645c-0.479,0.123-0.768,0.61-0.645,1.089
								C397.012,239.219,404.388,267.477,416.513,267.477z"/>
						</g>
					</g>
				</g>
				<g>
					<g>
						<g>
							<g>
								<path style="fill:#453F3F;" d="M387.974,272.547c-0.129,0-0.26-0.033-0.38-0.103c-0.34-0.198-8.399-4.957-13.451-14.327
									c-0.199-0.369-0.061-0.828,0.307-1.027c0.37-0.199,0.829-0.061,1.027,0.307c4.85,8.997,12.798,13.689,12.878,13.735
									c0.362,0.211,0.485,0.674,0.274,1.036C388.49,272.412,388.235,272.547,387.974,272.547z"/>
							</g>
						</g>
					</g>
				</g>
			</g>
			<g>
				<g>
					<g>
						<g>
							<path style="fill:#777D15;" d="M352.073,138.02c0,0-11.978-21.68,19.015-26.75c25.357-4.149,27.189,13.496,24.185,21.304
								C392.27,140.382,363.13,145.108,352.073,138.02z"/>
						</g>
					</g>
					<g>
						<g>
							<g>
								<g>
									<path style="fill:#777D15;" d="M374.196,126.267c0,0,19.372,1.373,27.064,5.667c10.401,5.807,11.155,42.036,14.763,57.671
										c3.608,15.634,11.534,42.244,9.931,49.46c-1.603,7.216-59.53,14.641-71.27,10.479c-6.189-2.194-2.137-44.398-7.522-61.937
										c-5.385-17.539-11.275-29.252-10.463-37.087c0.66-6.365,18.729-16.035,18.729-16.035L374.196,126.267z"/>
								</g>
							</g>
						</g>
					</g>
					<g>
						<g>
							<path style="fill:#424208;" d="M406.816,170.428c-2.037-1.564-5.428-2.059-8.438-1.233c-2.595,0.712-4.494,2.278-5.346,4.409
								c-0.823,2.057-1.676,3.551-3.167,4.151c-1.715,0.69-4.305,0.201-8.151-1.539c-7.891-3.57-11.301-1.038-15.248,1.894
								c-0.313,0.233-0.631,0.468-0.955,0.704c-3.896,2.833-11.08-0.617-13.949-2.731c-3.28-2.417-6.727-0.898-7.887-0.255
								c0.039,0.421,0.105,0.836,0.19,1.246c0.024-0.012,0.048-0.024,0.071-0.039c0.146-0.101,3.616-2.452,6.931-0.009
								c1.8,1.326,6.615,4.033,10.94,4.033c1.588,0,3.111-0.365,4.393-1.298c0.327-0.238,0.648-0.476,0.964-0.711
								c3.802-2.823,6.803-5.053,14.067-1.767c4.214,1.906,7.012,2.388,9.071,1.558c1.986-0.799,3.008-2.781,3.817-4.802
								c0.713-1.782,2.336-3.101,4.569-3.714c2.632-0.723,5.681-0.298,7.415,1.033c0.256,0.197,0.624,0.149,0.821-0.108
								C407.121,170.993,407.073,170.625,406.816,170.428z"/>
						</g>
					</g>
					<g>
						<g>
							<path style="fill:#424208;" d="M407.988,177.26c-1.944-1.492-5.056-1.954-7.926-1.176c-2.789,0.756-4.869,2.508-5.857,4.933
								c-0.841,2.065-1.707,3.563-3.195,4.156c-1.71,0.683-4.292,0.193-8.124-1.541c-7.891-3.57-11.3-1.038-15.248,1.894
								c-0.313,0.233-0.631,0.468-0.955,0.704c-3.896,2.833-11.08-0.617-13.949-2.731c-2.754-2.03-5.628-1.283-7.165-0.611
								c0.111,0.373,0.223,0.745,0.339,1.117c1.239-0.584,3.725-1.336,6.131,0.437c1.8,1.326,6.615,4.033,10.94,4.033
								c1.588,0,3.111-0.365,4.393-1.298c0.327-0.238,0.648-0.476,0.964-0.711c3.801-2.823,6.804-5.053,14.067-1.767
								c4.199,1.899,6.987,2.381,9.041,1.561c1.873-0.747,2.892-2.46,3.846-4.802c0.847-2.079,2.651-3.587,5.079-4.245
								c2.53-0.686,5.242-0.303,6.907,0.974c0.256,0.197,0.624,0.149,0.821-0.108C408.293,177.825,408.244,177.457,407.988,177.26z"
								/>
						</g>
					</g>
					<g>
						<g>
							<path style="fill:#424208;" d="M408.964,185.85c-1.928-1.48-4.966-1.939-7.739-1.169c-2.777,0.771-4.855,2.593-5.851,5.128
								c-0.953,2.426-1.863,3.627-3.139,4.145c-1.719,0.698-4.317,0.21-8.177-1.537c-7.891-3.57-11.301-1.038-15.248,1.894
								c-0.313,0.233-0.631,0.468-0.955,0.704c-3.896,2.833-11.08-0.617-13.949-2.731c-2.033-1.498-4.131-1.483-5.708-1.102
								c0.084,0.375,0.157,0.752,0.219,1.13c1.317-0.329,3.076-0.352,4.795,0.915c1.8,1.326,6.615,4.033,10.94,4.033
								c1.588,0,3.111-0.365,4.393-1.298c0.327-0.238,0.648-0.476,0.964-0.711c3.802-2.823,6.803-5.053,14.067-1.767
								c4.23,1.913,7.037,2.393,9.101,1.555c1.989-0.808,2.996-2.786,3.789-4.802c0.858-2.185,2.661-3.757,5.075-4.428
								c2.431-0.675,5.066-0.295,6.713,0.969c0.256,0.197,0.624,0.149,0.821-0.108C409.269,186.415,409.22,186.047,408.964,185.85z"
								/>
						</g>
					</g>
					<g>
						<g>
							<path style="fill:#424208;" d="M356.497,141.904c-0.068,0-0.136-0.012-0.204-0.036c-3.301-1.19-4.927-4.462-4.995-4.601
								c-0.145-0.298-0.022-0.658,0.277-0.803c0.298-0.146,0.657-0.022,0.803,0.276l0,0c0.014,0.03,1.489,2.977,4.323,3.998
								c0.312,0.112,0.474,0.457,0.361,0.769C356.973,141.751,356.743,141.904,356.497,141.904z"/>
						</g>
					</g>
					<g>
						<g>
							<path style="fill:#424208;" d="M383.492,159.499c-10.17,0-17.995-2.965-23.072-5.721c-6.621-3.595-10.039-7.519-10.182-7.684
								c-0.216-0.251-0.188-0.63,0.063-0.847c0.251-0.216,0.63-0.188,0.847,0.063c0.034,0.039,3.448,3.949,9.893,7.438
								c5.938,3.215,15.744,6.722,28.738,5.171c0.33-0.039,0.628,0.196,0.668,0.525c0.039,0.329-0.196,0.628-0.525,0.668
								C387.686,159.379,385.541,159.499,383.492,159.499z"/>
						</g>
					</g>
					<g>
						<g>
							<path style="fill:#424208;" d="M348.112,192.003c-0.26,0-0.499-0.17-0.576-0.432c-0.065-0.223-6.56-22.356-10.132-31.23
								c-0.124-0.308,0.025-0.658,0.333-0.782c0.307-0.124,0.658,0.025,0.781,0.333c3.594,8.928,10.105,31.118,10.171,31.341
								c0.093,0.318-0.089,0.652-0.408,0.745C348.225,191.995,348.168,192.003,348.112,192.003z"/>
						</g>
					</g>
					<g>
						<g>
							<g>
								<path style="fill:#424208;" d="M419.667,235.624c-0.206-12.886-2.568-25.976-7.186-39.871
									c-5.8-17.453-7.332-43.858-7.347-44.122c-0.019-0.339-0.306-0.599-0.647-0.579c-0.339,0.019-0.598,0.309-0.579,0.647
									c0.015,0.266,1.555,26.831,7.408,44.441c4.576,13.768,6.917,26.73,7.123,39.484H419.667z"/>
							</g>
						</g>
						<g>
							<g>
								<path style="fill:#424208;" d="M370.018,245.114c-10.968,0-16.941-1.532-17.206-1.601c-0.321-0.084-0.513-0.412-0.429-0.733
									c0.084-0.321,0.412-0.514,0.733-0.429c0.068,0.018,6.939,1.776,19.195,1.54c11.312-0.217,29.655-2.224,52.798-10.555
									c0.312-0.113,0.656,0.049,0.769,0.362c0.112,0.312-0.05,0.656-0.362,0.769c-23.328,8.398-41.831,10.414-53.246,10.627
									C371.498,245.107,370.747,245.114,370.018,245.114z"/>
							</g>
						</g>
					</g>
					<g>
						<g>
							<g>
								<g>
									<path style="fill:#424208;" d="M392.607,223.528c-6.285,0-13.305-1.777-20.758-5.296
										c-8.711-4.112-15.044-9.211-15.107-9.262c-0.271-0.22-0.313-0.617-0.093-0.888c0.22-0.271,0.617-0.313,0.889-0.093
										c0.062,0.05,6.296,5.066,14.875,9.112c7.86,3.707,19.358,7.339,29.5,3.589c0.327-0.121,0.691,0.046,0.812,0.373
										c0.121,0.327-0.046,0.691-0.373,0.812C399.365,222.979,396.099,223.528,392.607,223.528z"/>
								</g>
							</g>
						</g>
					</g>
					<g>
						<g>
							<g>
								<g>
									<path style="fill:#424208;" d="M394.743,229.076c-6.49,1.645-12.355,1.252-16.42,0.525
										c-5.356-0.958-8.746-2.644-8.888-2.715c-0.312-0.157-0.437-0.536-0.281-0.848c0.157-0.312,0.536-0.438,0.848-0.281
										c0.133,0.067,13.501,6.616,28.549,0.778c0.323-0.125,0.691,0.035,0.817,0.36c0.126,0.325-0.035,0.691-0.361,0.817
										C397.566,228.274,396.139,228.723,394.743,229.076z"/>
								</g>
							</g>
						</g>
					</g>
					<g>
						<g>
							<g>
								<g>
									<path style="fill:#424208;" d="M367.047,142.582c-5.615,0-10.114-3.639-10.32-3.809c-0.27-0.221-0.309-0.62-0.087-0.889
										c0.221-0.27,0.62-0.309,0.889-0.087c0.073,0.06,5.192,4.176,10.971,3.429c3.305-0.427,6.224-2.358,8.675-5.739
										c0.205-0.282,0.6-0.345,0.882-0.14c0.282,0.205,0.345,0.6,0.141,0.882c-2.666,3.677-5.878,5.78-9.546,6.252
										C368.11,142.55,367.573,142.582,367.047,142.582z"/>
								</g>
							</g>
						</g>
					</g>
				</g>
				<g>
					<g>
						<g>
							<g>
								<g>
									<path style="fill:#0C0B0B;" d="M372.999,103.326c0,0,3.259-8.657,1.601-12.662c-1.658-4.005-6.477-3.143-6.477-3.143
										s-0.798-3.4-6.116-4.662c-5.318-1.262-17.82,4.286-17.82,4.286s-2.928-2.538-5.271-2.538c-4.365,0,0.796,6.804,0.796,6.804
										s-3.383-1.806-4.739-0.322c-1.355,1.484,4.046,5.776,4.046,5.776s-2.37-0.161-2.91,2.118
										c-0.541,2.279,8.26,5.773,8.26,5.773l22.824,12.039c0,0,1.403,2.54,4.117,3.786L372.999,103.326z"/>
								</g>
								<g>
									<g>
										<g>
											<g>
												<g>
													<g>
														<g>
															<g>
																<g>
																	<g>
																		<path style="fill:#BA4535;" d="M350.413,110.497c0,0-2.611-4.564-6.358-2.585
																			c-3.747,1.979-1.029,15.282,6.472,13.226L350.413,110.497z"/>
																	</g>
																</g>
															</g>
														</g>
													</g>
												</g>
											</g>
										</g>
									</g>
								</g>
								<g>
									<g>
										<g>
											<g>
												<g>
													<g>
														<g>
															<g>
																<g>
																	<g>
																		<path style="fill:#E36C57;" d="M375.745,129.659c0,0,1.377,1.405-5.408,5.378
																			c-3.58,2.096-8.53,2.327-11.223,1.573c-1.095-0.305-1.749-0.588-1.749-0.588
																			c-0.285-5.874-2.208-9.224-2.713-10.012c-0.078-0.12-0.122-0.18-0.122-0.18l16.558-14.562L375.745,129.659z"/>
																	</g>
																</g>
															</g>
														</g>
													</g>
												</g>
											</g>
										</g>
									</g>
								</g>
								<g>
									<g>
										<g>
											<g>
												<g>
													<g>
														<g>
															<g>
																<g>
																	<g>
																		<path style="fill:#0C0B0B;" d="M370.372,119.476c0,0-1.237,13.826-11.258,17.135
																			c-1.095-0.305-1.749-0.588-1.749-0.588c-0.285-5.874-2.208-9.224-2.713-10.012L370.372,119.476z"/>
																	</g>
																</g>
															</g>
														</g>
													</g>
												</g>
											</g>
										</g>
									</g>
								</g>
								<g>
									<g>
										<path style="fill:#E36C57;" d="M364.719,128.025c-7.481,3.544-14.62,1.761-17.096-4.797
											c-0.599-1.581-1.288-3.914-1.945-6.362c-0.007-0.026-0.014-0.049-0.02-0.075c-0.139-0.52-0.277-1.047-0.415-1.572
											c-0.1-0.381-0.197-0.762-0.292-1.14c-1.115-4.381-2.001-8.382-2.001-8.382c-1.642-11.166,8.093-17.966,17.773-16.037
											c9.677,1.931,9.737,16.016,11.359,22.487C373.706,118.619,371.135,124.987,364.719,128.025z"/>
									</g>
								</g>
								<g>
									<g>
										<g>
											<g>
												<g>
													<path style="fill:#0C0B0B;" d="M359.02,104.329c2.349-0.119,2.348-2.667,0.011-3.374
														c-1.067-0.323-2.2-0.539-3.234-0.272c-2.938,0.76-2.478,2.851-0.787,3.299
														C355.819,104.197,357.67,104.397,359.02,104.329z"/>
												</g>
											</g>
										</g>
									</g>
								</g>
								<g>
									<g>
										<g>
											<g>
												<g>
													<path style="fill:#0C0B0B;" d="M346.066,107.091c-2.212,0.801-3.198-1.549-1.318-3.106
														c0.858-0.711,1.819-1.35,2.876-1.504c3.003-0.438,3.389,1.668,2.004,2.736
														C348.965,105.729,347.337,106.631,346.066,107.091z"/>
												</g>
											</g>
										</g>
									</g>
								</g>
								<g>
									<g>
										<g>
											<g>
												<g>
													<g>
														<g>
															<g>
																<g>
																	<g>
																		<path style="fill:#BA4535;" d="M346.598,116.742c-0.313,0.059-0.623,0.1-0.92,0.123
																			c-0.007-0.026-0.014-0.049-0.02-0.075c-0.139-0.52-0.277-1.047-0.415-1.572c-0.1-0.381-0.197-0.762-0.292-1.14
																			c0.343-0.109,0.713-0.204,1.101-0.275c2.015-0.376,3.769-0.022,3.921,0.789
																			C350.124,115.404,348.612,116.367,346.598,116.742z"/>
																	</g>
																</g>
															</g>
														</g>
													</g>
												</g>
											</g>
										</g>
									</g>
								</g>
								<g>
									<g>
										<g>
											<g>
												<g>
													<g>
														<g>
															<g>
																<g>
																	<path style="fill:#FFFFFF;" d="M341.859,114.307c-1.64-2.618-0.846-6.082,1.772-7.722
																		c2.618-1.641,6.082-0.846,7.722,1.772c1.641,2.618,0.846,6.082-1.772,7.722
																		C346.964,117.719,343.499,116.924,341.859,114.307z M342.552,113.872c1.401,2.236,4.36,2.915,6.595,1.514
																		c2.236-1.401,2.914-4.36,1.513-6.595c-1.401-2.236-4.36-2.914-6.595-1.513
																		C341.83,108.678,341.151,111.637,342.552,113.872z"/>
																</g>
															</g>
														</g>
													</g>
												</g>
											</g>
										</g>
									</g>
								</g>
								<g>
									<path style="fill:#0C0B0B;" d="M354.241,113.597c-0.016,0-0.033-0.001-0.049-0.003c-1.618-0.202-2.543-0.708-2.581-0.729
										c-0.185-0.103-0.255-0.335-0.156-0.522l1.021-1.949l-0.381-4.572c-0.018-0.215,0.142-0.404,0.357-0.422
										c0.216-0.019,0.404,0.142,0.422,0.357l0.391,4.685c0.006,0.074-0.009,0.148-0.043,0.214l-0.882,1.683
										c0.375,0.149,1.042,0.368,1.951,0.481c0.214,0.027,0.366,0.222,0.339,0.436
										C354.603,113.453,354.434,113.597,354.241,113.597z"/>
								</g>
								<g>
									<path style="fill:#0C0B0B;" d="M348.616,109.751c0.141,0.777-0.094,1.47-0.526,1.548c-0.431,0.078-0.895-0.488-1.036-1.264
										c-0.141-0.777,0.095-1.47,0.526-1.548C348.012,108.408,348.476,108.974,348.616,109.751z"/>
								</g>
								<g>
									<path style="fill:#0C0B0B;" d="M357.011,107.408c0.141,0.777-0.095,1.47-0.526,1.548c-0.431,0.078-0.895-0.488-1.036-1.265
										c-0.141-0.777,0.094-1.47,0.526-1.548C356.406,106.065,356.87,106.632,357.011,107.408z"/>
								</g>
								<g>
									<g>
										<g>
											<g>
												<g>
													<path style="fill:#FFFFFF;" d="M360.204,114.542c0,0,0.032,4.543-3.14,6.287c-3.61,1.984-6.002-2.561-6.002-2.561
														L360.204,114.542z"/>
												</g>
											</g>
										</g>
									</g>
								</g>
								<g>
									<g>
										<g>
											<g>
												<g>
													<g>
														<g>
															<g>
																<g>
																	<g>
																		<path style="fill:#BA4535;" d="M366.831,109.787c0.151,0.811-1.359,1.774-3.374,2.149
																			c-2.015,0.376-3.771,0.022-3.922-0.79c-0.151-0.811,1.359-1.774,3.374-2.149
																			C364.924,108.622,366.68,108.975,366.831,109.787z"/>
																	</g>
																</g>
															</g>
														</g>
													</g>
												</g>
											</g>
										</g>
									</g>
								</g>
								<g>
									<g>
										<g>
											<g>
												<g>
													<g>
														<path style="fill:#0C0B0B;" d="M369.984,100.717c0.001,0.263-0.017,0.417-0.017,0.417s-1.616,1.123-1.556,4.841
															l-2.381,0.525c0,0-1.664-2.674-1.999-7.674c-0.029-0.4-0.114-0.781-0.245-1.144
															c-1.594-4.228-10.158-6.174-15.143-3.789c-5.405,2.589-5.834,8.244-5.834,8.244s-0.126,2.069,0.336,4.304
															c-0.837-2.194-2.152-6.322,0.371-11.461c3.767-7.696,14.936-10.286,21.045-5.112
															C369.711,94.231,370.022,99.249,369.984,100.717z"/>
													</g>
												</g>
											</g>
										</g>
									</g>
								</g>
								<g>
									<g>
										<path style="fill:#BA4535;" d="M373.326,100.134c1.39,2.347-3.359,1-3.359,1s-1.616,1.123-1.556,4.841l-2.381,0.525
											c0,0-1.664-2.674-1.999-7.674c-0.029-0.4-0.114-0.781-0.245-1.144l6.974,0.822
											C371.818,98.63,372.782,99.217,373.326,100.134z"/>
									</g>
								</g>
								<g>
									<g>
										<g>
											<g>
												<g>
													<g>
														<g>
															<g>
																<path style="fill:#0C0B0B;" d="M359.484,93.947c0,0-4.376-0.498-6.09,0.765c-1.714,1.264-4.227,2.989-6.717,2.038
																	c-2.49-0.951-3.702,4.15-3.702,4.15s0.543-8.651,7.54-8.742C357.514,92.067,357.322,91.453,359.484,93.947z"/>
															</g>
														</g>
													</g>
												</g>
											</g>
										</g>
									</g>
								</g>
								<g>
									<g>
										<g>
											<g>
												<g>
													<g>
														<g>
															<g>
																<g>
																	<g>
																		<path style="fill:#BA4535;" d="M356.464,122.914c-0.186,0.008-0.306-0.001-0.326-0.003
																			c-0.234-0.02-0.407-0.226-0.387-0.46c0.02-0.233,0.223-0.408,0.459-0.387c0.069,0.005,1.595,0.107,2.417-1.214
																			c0.124-0.2,0.386-0.261,0.585-0.136c0.2,0.124,0.261,0.386,0.136,0.585
																			C358.497,122.668,357.097,122.889,356.464,122.914z"/>
																	</g>
																</g>
															</g>
														</g>
													</g>
												</g>
											</g>
										</g>
									</g>
								</g>
								<g>
									<g>
										<g>
											<g>
												<g>
													<g>
														<g>
															<g>
																<g>
																	<g>
																		<path style="fill:#E36C57;" d="M368.23,103.674c0,0,1.32-4.211,5.478-3.395c4.159,0.816,5.387,14.338-2.388,14.53
																			L368.23,103.674z"/>
																	</g>
																</g>
															</g>
														</g>
													</g>
												</g>
											</g>
										</g>
									</g>
								</g>
								<g>
									<path style="fill:#0C0B0B;" d="M372.102,115.256c-2.144,0-3.215-1.674-3.259-1.745c-0.114-0.183-0.059-0.424,0.124-0.538
										c0.182-0.114,0.423-0.059,0.537,0.123c0.038,0.06,0.899,1.379,2.598,1.379c0.216,0,0.39,0.175,0.39,0.39
										S372.318,115.256,372.102,115.256z"/>
								</g>
								<g>
									<g>
										<g>
											<g>
												<g>
													<g>
														<g>
															<g>
																<g>
																	<g>
																		<g>
																			<path style="fill:#0C0B0B;" d="M371.602,109.835c-0.025,0.005-0.051,0.007-0.078,0.006
																				c-0.201-0.006-0.359-0.175-0.353-0.376c0.006-0.171,0.171-4.213,3.452-5.644c0.184-0.08,0.399,0.004,0.48,0.188
																				c0.08,0.185-0.004,0.399-0.188,0.479c-2.863,1.249-3.014,4.962-3.015,4.999
																				C371.894,109.662,371.767,109.804,371.602,109.835z"/>
																		</g>
																	</g>
																</g>
															</g>
														</g>
													</g>
												</g>
											</g>
										</g>
									</g>
									<g>
										<g>
											<g>
												<g>
													<g>
														<g>
															<g>
																<g>
																	<g>
																		<g>
																			<path style="fill:#0C0B0B;" d="M374.468,107.845c-0.09,0.017-0.186,0-0.268-0.055
																				c-0.009-0.006-0.868-0.575-1.855-1.11c-0.177-0.096-0.243-0.317-0.147-0.494
																				c0.096-0.177,0.317-0.242,0.494-0.147c1.017,0.552,1.875,1.12,1.911,1.144c0.167,0.111,0.213,0.338,0.102,0.505
																				C374.648,107.774,374.562,107.828,374.468,107.845z"/>
																		</g>
																	</g>
																</g>
															</g>
														</g>
													</g>
												</g>
											</g>
										</g>
									</g>
								</g>
							</g>
						</g>
						<g>
							<g>
								<g>
									<g>
										<g>
											<g>
												<g>
													<g>
														<g>
															<path style="fill:#FFFFFF;" d="M353.748,110.531c-1.64-2.618-0.845-6.082,1.772-7.723
																c2.617-1.64,6.082-0.845,7.722,1.772c1.641,2.618,0.846,6.082-1.772,7.722
																C358.853,113.943,355.389,113.148,353.748,110.531z M354.441,110.096c1.401,2.235,4.36,2.914,6.595,1.513
																c2.236-1.401,2.915-4.36,1.514-6.595c-1.401-2.236-4.36-2.915-6.595-1.513
																C353.719,104.902,353.04,107.861,354.441,110.096z"/>
														</g>
													</g>
												</g>
											</g>
										</g>
									</g>
								</g>
							</g>
						</g>
						<g>
							<g>
								<g>
									<g>
										<g>
											<g>
												<g>
													<g>
														<g>
															<path style="fill:#FFFFFF;" d="M363.216,105.349c0.048-0.012,0.096-0.034,0.139-0.065
																c2.705-1.95,5.702-1.462,5.732-1.457c0.222,0.038,0.434-0.111,0.472-0.334c0.038-0.222-0.111-0.434-0.334-0.472
																c-0.136-0.023-3.368-0.55-6.349,1.599c-0.183,0.132-0.225,0.388-0.092,0.571
																C362.885,105.331,363.058,105.389,363.216,105.349z"/>
														</g>
													</g>
												</g>
											</g>
										</g>
									</g>
								</g>
							</g>
						</g>
						<g>
							<g>
								<g>
									<g>
										<g>
											<g>
												<g>
													<g>
														<g>
															<path style="fill:#FFFFFF;" d="M353.547,108.151c0.054-0.044,0.098-0.102,0.124-0.171
																c0.081-0.211-0.025-0.447-0.236-0.528c-0.063-0.024-1.561-0.576-2.74,0.765c-0.149,0.17-0.132,0.428,0.037,0.577
																c0.17,0.149,0.428,0.133,0.577-0.037c0.808-0.919,1.823-0.545,1.833-0.541
																C353.285,108.269,353.438,108.239,353.547,108.151z"/>
														</g>
													</g>
												</g>
											</g>
										</g>
									</g>
								</g>
							</g>
						</g>
					</g>
				</g>
			</g>
			<g>
				<g>
					<g>
						<g>
							<path style="fill:#453F3F;" d="M415.4,418.965c-0.324-0.102-0.549-0.413-0.529-0.767c0.02-0.339,1.969-34.052,3.253-46.331
								c1.267-12.119-4.278-31.96-4.335-32.159c-0.026-0.092-0.034-0.188-0.025-0.283c2.074-20.338,4.791-66.979,4.819-67.448
								c0.024-0.418,0.383-0.737,0.801-0.713c0.417,0.024,0.737,0.383,0.713,0.801c-0.027,0.468-2.734,46.927-4.809,67.371
								c0.543,1.952,5.599,20.588,4.344,32.589c-1.28,12.244-3.227,45.922-3.247,46.26c-0.024,0.418-0.383,0.737-0.8,0.713
								C415.52,418.995,415.459,418.983,415.4,418.965z"/>
						</g>
					</g>
				</g>
			</g>
		</g>
		<g>
			<g>
				<path style="fill:#FFFFFF;" d="M370.05,223.977c-0.227,0-0.444-0.129-0.546-0.349c-6.346-13.731-9.233-35.041-10.538-50.499
					c-1.412-16.724-1.328-30.396-1.327-30.532c0.003-0.33,0.271-0.596,0.6-0.596c0.002,0,0.003,0,0.005,0
					c0.332,0.003,0.599,0.273,0.596,0.605c-0.004,0.542-0.262,54.516,11.755,80.518c0.139,0.301,0.008,0.658-0.293,0.797
					C370.22,223.959,370.134,223.977,370.05,223.977z"/>
			</g>
		</g>
		<g>
			<g>
				<path style="fill:#FFFFFF;" d="M395.187,223.533c-0.248,0-0.479-0.154-0.566-0.401c-10.494-29.719-17.56-82.82-17.63-83.353
					c-0.043-0.329,0.188-0.631,0.517-0.674c0.329-0.044,0.631,0.188,0.674,0.517c0.07,0.532,7.119,53.51,17.572,83.11
					c0.11,0.313-0.054,0.656-0.366,0.766C395.32,223.522,395.253,223.533,395.187,223.533z"/>
			</g>
		</g>
		<g>
			<g>
				<path style="fill:#777D15;" d="M465.261,131.241c-0.027-1.07-0.063-2.136-0.123-3.202c-0.059-1.066-0.137-2.128-0.232-3.196
					c-0.051-0.533-0.107-1.068-0.166-1.605l-0.092-0.812l-0.055-0.414c-0.018-0.145-0.037-0.271-0.057-0.457
					c-0.31-2.981-2.509-5.556-5.599-6.192c-3.82-0.787-7.557,1.671-8.344,5.491l-0.123,0.593l-1.132,5.503
					c-0.199,0.929-0.394,1.856-0.603,2.778c-0.201,0.923-0.418,1.839-0.633,2.749c-0.867,3.637-1.833,7.188-2.969,10.426
					c-0.582,1.611-1.179,3.149-1.847,4.494c-0.322,0.677-0.658,1.304-0.994,1.858c-0.338,0.554-0.677,1.033-0.976,1.406
					c-0.047,0.057-0.092,0.111-0.135,0.162l-0.326-0.043c-0.344-0.049-0.834-0.137-1.396-0.279c-0.564-0.135-1.199-0.31-1.87-0.533
					c-0.673-0.219-1.382-0.48-2.11-0.767c-0.73-0.283-1.48-0.597-2.241-0.935c-3.045-1.361-6.243-3.036-9.429-4.849
					c-3.196-1.81-6.409-3.756-9.616-5.761c-1.603-1.003-3.204-2.022-4.804-3.043l-4.685-3.001l-0.293-0.187
					c-4.371-2.805-10.255-2.069-13.784,1.954c-3.889,4.433-3.449,11.18,0.984,15.071l0.66,0.578l0.617,0.529l1.224,1.029
					c0.818,0.675,1.638,1.339,2.469,1.987c1.655,1.302,3.344,2.559,5.062,3.785c3.436,2.452,6.993,4.777,10.731,6.956
					c3.75,2.165,7.652,4.211,11.972,5.976c1.082,0.441,2.19,0.867,3.338,1.269c1.15,0.398,2.341,0.769,3.588,1.109
					c1.222,0.33,2.493,0.634,3.859,0.873c1.427,0.25,2.96,0.427,4.648,0.482c0.828,0.023,1.694,0.014,2.61-0.049l0.697-0.059
					l0.717-0.08c0.246-0.035,0.486-0.066,0.736-0.107l0.375-0.064l0.187-0.035l0.217-0.045c1.156-0.236,2.298-0.584,3.375-1.023
					c0.935-0.381,1.817-0.83,2.637-1.322c0.129-0.074,0.254-0.152,0.379-0.23c1.851-1.171,3.346-2.52,4.533-3.871
					c1.197-1.353,2.126-2.704,2.905-4.012c0.781-1.31,1.402-2.592,1.929-3.84c0.529-1.247,0.97-2.466,1.353-3.662
					c0.375-1.197,0.693-2.374,0.97-3.531c0.281-1.16,0.51-2.303,0.709-3.436c0.798-4.527,1.113-8.888,1.167-13.197
					C465.29,133.384,465.278,132.31,465.261,131.241z M440.476,151.32c0.098-0.102,0.32-0.244,0.576-0.353
					c-0.195,0.209-0.367,0.355-0.488,0.428c-0.088,0.053-0.146,0.072-0.162,0.057C440.384,151.436,440.408,151.387,440.476,151.32z"
					/>
			</g>
			<g>
				<path style="fill:#424208;" d="M451.332,170.239c-0.82,0.492-1.702,0.941-2.637,1.322c-1.078,0.439-2.22,0.787-3.375,1.023
					l-0.217,0.045l-0.187,0.035l-0.375,0.064c-0.25,0.041-0.49,0.072-0.736,0.107l-0.717,0.08l-0.697,0.059
					c-0.915,0.062-1.782,0.072-2.61,0.049c-1.689-0.055-3.221-0.232-4.648-0.482c1.622-2.323,4.568-5.029,9.589-5.357
					C448.462,166.939,450.375,168.423,451.332,170.239z"/>
			</g>
			<g>
				<g>
					<path style="fill:#424208;" d="M411.145,163.279c-0.1,0-0.201-0.026-0.293-0.079l-16.86-9.785
						c-0.28-0.162-0.375-0.521-0.213-0.8c0.162-0.28,0.521-0.375,0.801-0.213l16.86,9.785c0.28,0.162,0.375,0.521,0.213,0.801
						C411.543,163.175,411.346,163.279,411.145,163.279z"/>
				</g>
				<g>
					<path style="fill:#424208;" d="M394.971,157.028c-0.249,0-0.48-0.16-0.558-0.41c-0.097-0.308,0.074-0.637,0.382-0.735
						l3.487-1.1c0.308-0.097,0.637,0.074,0.735,0.382c0.097,0.308-0.074,0.637-0.382,0.735l-3.487,1.1
						C395.089,157.02,395.029,157.028,394.971,157.028z"/>
				</g>
			</g>
			<g>
				<path style="fill:#424208;" d="M381.472,138.682c-0.289,0-0.54-0.214-0.579-0.508c-0.043-0.32,0.182-0.615,0.503-0.658
					c0.086-0.011,8.627-1.227,13.876-7.6c0.205-0.249,0.575-0.286,0.824-0.08c0.25,0.205,0.285,0.575,0.08,0.824
					c-5.549,6.738-14.257,7.968-14.625,8.017C381.524,138.68,381.497,138.682,381.472,138.682z"/>
			</g>
			<g>
				<g>
					<path style="fill:#424208;" d="M436.635,160.265c-0.057,0-0.115-0.008-0.173-0.026c-0.309-0.095-0.482-0.423-0.387-0.732
						c1.386-4.491,4.199-8.355,4.318-8.517c0.191-0.261,0.558-0.317,0.818-0.126c0.261,0.191,0.317,0.558,0.126,0.819
						c-0.028,0.038-2.817,3.873-4.143,8.17C437.117,160.104,436.885,160.265,436.635,160.265z"/>
				</g>
			</g>
			<g>
				<g>
					<path style="fill:#424208;" d="M435.486,154.458c-0.201,0-0.396-0.103-0.505-0.289c-0.164-0.279-0.071-0.638,0.208-0.802
						c0.11-0.065,2.712-1.585,4.792-1.787c0.318-0.033,0.608,0.204,0.64,0.526c0.031,0.322-0.204,0.608-0.526,0.64
						c-1.825,0.178-4.287,1.617-4.311,1.631C435.689,154.432,435.587,154.458,435.486,154.458z"/>
				</g>
			</g>
			<g>
				<path style="fill:#424208;" d="M458.74,132.27c-1.446,0-2.936-0.291-4.444-0.875c-2.78-1.077-4.622-2.753-4.699-2.824
					c-0.238-0.219-0.254-0.589-0.035-0.828c0.219-0.238,0.59-0.254,0.828-0.035c0.035,0.032,1.794,1.619,4.363,2.607
					c3.392,1.303,6.541,1,9.358-0.904c0.268-0.182,0.632-0.111,0.813,0.157c0.181,0.268,0.111,0.632-0.157,0.813
					C462.908,131.638,460.872,132.27,458.74,132.27z"/>
			</g>
			<g>
				<path style="fill:#424208;" d="M452.177,130.292c-0.045,0-0.09-0.005-0.135-0.016c-0.315-0.074-0.509-0.39-0.435-0.705
					l1.525-6.446c0.074-0.315,0.39-0.51,0.705-0.435c0.315,0.074,0.51,0.39,0.435,0.705l-1.525,6.446
					C452.683,130.11,452.442,130.292,452.177,130.292z"/>
			</g>
			<g>
				<g>
					<g>
						<g>
							<g>
								<g>
									<g>
										<g>
											<path style="fill:#E36C57;" d="M451.071,121.658c0,0,4.641,5.613,9.862,4.057c4.215-1.259,5.626-6.836,6.014-8.934
												c0.092-0.502,0.126-0.804,0.126-0.804s0.291-0.132,0.698-0.378c0.955-0.574,2.552-1.77,2.531-3.345
												c-0.03-2.244-4.177-1.368-4.177-1.368s0.853-2.631-0.268-3.528c-1.104-0.881-3.632,0.276-3.632,0.276
												s1.598-3.173-0.114-4.127c-2.574-1.435-3.83,2.529-3.964,2.786c0.056-0.291,2.447-12.575,0.26-12.131
												c-1.909,0.388-4.553,10.597-5.239,13.378c-0.11,0.44-0.168,0.694-0.168,0.694s-0.149-0.018-0.401-0.033
												c-1.198-0.073-4.742-0.073-5.605,2.317C445.949,113.408,451.071,121.658,451.071,121.658z"/>
										</g>
									</g>
								</g>
							</g>
						</g>
					</g>
				</g>
				<g>
					<g>
						<g>
							<g>
								<g>
									<g>
										<g>
											<path style="fill:#BA4535;" d="M462.303,113.836c-0.513,0.92-0.829,1.944-0.687,2.708
												c0.093,0.492,0.364,0.846,0.787,1.024c0.291,0.122,0.682,0.152,1.122,0.118c1.1-0.083,2.502-0.553,3.422-0.905
												c0.094-0.503,0.126-0.804,0.126-0.804s0.293-0.131,0.7-0.378c-0.077-0.012-0.158-0.001-0.233,0.033
												c-1.434,0.627-4.009,1.499-4.813,1.16c-0.104-0.045-0.232-0.133-0.286-0.405c-0.155-0.838,0.613-2.519,1.579-3.454
												c0.156-0.15,0.174-0.388,0.042-0.557c-0.131-0.173-0.369-0.216-0.551-0.104c-0.888,0.539-3.444,1.826-4.613,1.335
												c-0.17-0.072-0.187-0.155-0.193-0.199c-0.037-0.198,0.069-0.49,0.257-0.823c0.383-0.677,1.11-1.52,1.678-2.061
												c0.065-0.064,0.106-0.139,0.121-0.222c0.027-0.131-0.008-0.27-0.106-0.372c-0.16-0.168-0.426-0.175-0.596-0.014
												c-0.254,0.242-1.136,1.114-1.704,2.043c-0.206,0.339-0.371,0.686-0.446,1.012c-0.05,0.207-0.064,0.407-0.031,0.591
												c0.049,0.26,0.209,0.614,0.694,0.82C459.606,114.816,461.133,114.348,462.303,113.836z"/>
										</g>
									</g>
								</g>
							</g>
						</g>
					</g>
				</g>
				<g>
					<g>
						<g>
							<g>
								<g>
									<g>
										<g>
											<path style="fill:#BA4535;" d="M456.22,109.738c0.161,0.063,0.268,0.215,0.266,0.388
												c-0.006,0.548,0.074,1.03,0.251,1.329c0.143,0.236,0.293,0.274,0.408,0.28c0.187,0.009,0.431-0.062,0.711-0.191
												c0.695-0.318,1.611-0.992,2.406-1.657c-0.014,0.082-0.056,0.158-0.121,0.222c-0.568,0.542-1.294,1.384-1.678,2.061
												c-0.089,0.047-0.178,0.09-0.264,0.13c-0.279,0.126-0.548,0.218-0.789,0.256c-0.108,0.016-0.207,0.023-0.304,0.018
												c-0.459-0.022-0.836-0.262-1.09-0.691c-0.268-0.452-0.38-1.087-0.374-1.772c0.003-0.29,0.293-0.485,0.564-0.379
												C456.211,109.735,456.216,109.736,456.22,109.738z"/>
										</g>
									</g>
								</g>
							</g>
						</g>
					</g>
				</g>
				<g>
					<g>
						<g>
							<g>
								<g>
									<g>
										<g>
											<path style="fill:#BA4535;" d="M449.805,113.887c0.105,0.021,1.715,0.331,3.315,0.209
												c0.886-0.067,1.771-0.268,2.393-0.724c0.513-0.376,0.809-0.883,0.88-1.508c0.249-2.217-1.914-3.659-3.226-4.322
												c-0.11,0.44-0.168,0.694-0.168,0.694s-0.149-0.018-0.401-0.033c1.107,0.531,3.163,1.771,2.96,3.567
												c-0.042,0.387-0.219,0.689-0.541,0.924c-1.201,0.882-4.053,0.566-5.05,0.37c-0.227-0.046-0.449,0.102-0.493,0.33
												C449.429,113.621,449.578,113.841,449.805,113.887z"/>
										</g>
									</g>
								</g>
							</g>
						</g>
					</g>
				</g>
				<g>
					<g>
						<g>
							<g>
								<g>
									<g>
										<g>
											<path style="fill:#BA4535;" d="M458.067,122.685c0.144-0.011,0.279-0.096,0.347-0.236
												c0.101-0.209,0.014-0.46-0.195-0.561c-1.125-0.545-1.845-1.35-2.139-2.395c-0.754-2.677,1.417-6.1,1.439-6.134
												c0.125-0.195,0.069-0.455-0.126-0.581c-0.195-0.125-0.455-0.069-0.581,0.126c-0.098,0.153-2.396,3.779-1.541,6.816
												c0.362,1.286,1.231,2.269,2.582,2.923C457.922,122.677,457.996,122.69,458.067,122.685z"/>
										</g>
									</g>
								</g>
							</g>
						</g>
					</g>
				</g>
			</g>
		</g>
	</g>
	<g>
		<g>
			<g>
				<g>
					<g>
						<g>
							<g>
								<g>
									<path style="fill:#777D15;" d="M89.33,389.103c0,0-9.104-14.307-31.214-27.313c-15.614-9.185-24.711-35.116-24.711-35.116
										s29.914,1.301,42.92,19.509C89.33,364.392,89.33,389.103,89.33,389.103z"/>
								</g>
							</g>
						</g>
					</g>
				</g>
				<g>
					<g>
						<g>
							<g>
								<g>
									<g>
										<path style="fill:#424208;" d="M89.428,389.486c-0.197,0-0.377-0.132-0.43-0.331
											c-4.206-15.874-13.413-27.387-20.395-34.25c-7.566-7.436-14.207-11.156-14.273-11.193
											c-0.215-0.119-0.293-0.39-0.173-0.605c0.119-0.215,0.39-0.293,0.605-0.173c0.067,0.037,6.814,3.816,14.466,11.336
											c7.062,6.941,16.374,18.588,20.632,34.658c0.063,0.238-0.079,0.481-0.316,0.544
											C89.504,389.482,89.466,389.486,89.428,389.486z"/>
									</g>
								</g>
							</g>
						</g>
					</g>
				</g>
			</g>
			<g>
				<g>
					<g>
						<g>
							<g>
								<g>
									<g>
										<path style="fill:#777D15;" d="M85.407,388.776c0,0-2.601-5.202-14.307-3.902c-11.705,1.301-18.208,7.804-39.018-3.902
											c0,0,15.607-13.006,32.515-10.405C81.505,373.169,82.806,379.672,85.407,388.776z"/>
									</g>
								</g>
							</g>
						</g>
					</g>
				</g>
				<g>
					<g>
						<g>
							<g>
								<g>
									<g>
										<path style="fill:#424208;" d="M85.465,389.222c-0.148,0-0.293-0.074-0.378-0.209c-0.052-0.083-5.289-8.31-13.708-9.84
											c-14.714-2.674-24.733,2.029-24.833,2.077c-0.221,0.106-0.488,0.014-0.594-0.208c-0.106-0.222-0.014-0.487,0.208-0.594
											c0.102-0.049,10.364-4.882,25.378-2.151c8.813,1.602,14.084,9.892,14.304,10.244c0.13,0.208,0.067,0.483-0.142,0.613
											C85.627,389.2,85.546,389.222,85.465,389.222z"/>
									</g>
								</g>
							</g>
						</g>
					</g>
				</g>
			</g>
			<g>
				<g>
					<g>
						<g>
							<g>
								<g>
									<g>
										<path style="fill:#777D15;" d="M90.519,387.519c0,0-1.021-5.726,9.145-11.674c10.166-5.947,19.265-4.615,28.966-26.432
											c0,0-20.286-1.111-32.294,11.073C84.327,372.671,87.168,378.663,90.519,387.519z"/>
									</g>
								</g>
							</g>
						</g>
					</g>
				</g>
				<g>
					<g>
						<g>
							<g>
								<g>
									<g>
										<path style="fill:#424208;" d="M90.472,387.999c-0.229,0-0.424-0.176-0.443-0.409c-0.034-0.414-0.757-10.211,5.355-16.76
											c10.413-11.157,21.529-13.409,21.64-13.43c0.239-0.047,0.475,0.111,0.522,0.353c0.047,0.241-0.112,0.475-0.353,0.522
											c-0.108,0.021-10.954,2.231-21.158,13.164c-5.846,6.263-5.127,15.982-5.119,16.079c0.02,0.245-0.163,0.46-0.408,0.48
											C90.496,387.998,90.484,387.999,90.472,387.999z"/>
									</g>
								</g>
							</g>
						</g>
					</g>
				</g>
			</g>
			<g>
				<g>
					<g>
						<g>
							<path style="fill:#EF6931;" d="M117.666,453.373c-1.514,0.921-3.26,1.68-5.232,2.309c-0.002,0-0.005,0-0.005,0
								c-6.128,1.949-14.373,2.597-24.098,2.597c-14.594,0-25.858-1.457-31.637-6.593c-2.017-1.792-3.367-4.033-3.955-6.816
								c-0.294-1.397-0.397-2.932-0.299-4.612c0.007-0.089,0.011-0.18,0.018-0.271c0.041-0.579,0.107-1.176,0.196-1.792
								c0.082-0.565,0.185-1.133,0.308-1.698c0.399-1.888,1.003-3.761,1.753-5.597c0.073-0.178,0.148-0.356,0.224-0.533
								c0.467-1.092,0.985-2.17,1.543-3.228c1.22-2.323,2.633-4.552,4.112-6.634c0.239-0.335,0.479-0.668,0.72-0.994
								c0.704-0.96,1.422-1.883,2.138-2.767c0.809-1.003,1.616-1.954,2.403-2.843c0.736-0.837,1.454-1.619,2.141-2.344
								c0.802-0.85,1.562-1.621,2.248-2.298c2.122-2.095,3.552-3.303,3.552-3.303l0.066-0.378l0.406-2.3l0.465-2.644l1.069-6.043
								l0.371-2.113l12.157-0.531l12.684,0.531l0.29,2.113l0.454,3.317l0.741,5.371l0.317,2.3l0.048,0.378
								c0,0,1.434,1.208,3.552,3.303c0.691,0.677,1.445,1.447,2.252,2.298c0.771,0.814,1.582,1.703,2.416,2.658
								c0.698,0.8,1.411,1.644,2.125,2.528c0.96,1.185,1.924,2.444,2.861,3.761c0.499,0.702,0.989,1.42,1.47,2.154
								c0.939,1.441,1.833,2.939,2.64,4.479c0.65,1.231,1.242,2.487,1.764,3.761c0.438,1.065,0.825,2.143,1.151,3.23
								c0,0,0,0,0,0.002c0.235,0.784,0.44,1.573,0.609,2.364c0.068,0.319,0.13,0.641,0.187,0.962c0,0.002,0,0.002,0,0.002
								c0.041,0.246,0.082,0.488,0.116,0.734c0.105,0.711,0.176,1.4,0.214,2.063C124.587,446.441,122.212,450.612,117.666,453.373z"
								/>
						</g>
					</g>
					<g>
						<g>
							<path style="fill:#BB4000;" d="M116.07,420.505H60.596c0.239-0.335,0.479-0.668,0.72-0.994
								c0.704-0.96,1.422-1.883,2.138-2.767h49.755C114.169,417.929,115.133,419.188,116.07,420.505z"/>
						</g>
					</g>
					<g>
						<g>
							<path style="fill:#BB4000;" d="M121.945,430.9H54.716c0.073-0.178,0.148-0.356,0.224-0.533
								c0.467-1.092,0.985-2.17,1.543-3.228h63.697C120.83,428.37,121.423,429.626,121.945,430.9z"/>
						</g>
					</g>
					<g>
						<g>
							<path style="fill:#BB4000;" d="M124.222,440.258H52.441c0.007-0.089,0.011-0.18,0.018-0.271
								c0.041-0.579,0.107-1.176,0.196-1.792c0.082-0.565,0.185-1.133,0.308-1.698h70.741c0.068,0.319,0.13,0.641,0.187,0.962
								c0,0.002,0,0.002,0,0.002c0.041,0.246,0.082,0.488,0.116,0.734C124.113,438.906,124.184,439.595,124.222,440.258z"/>
						</g>
					</g>
					<g>
						<g>
							<g>
								<g>
									<g>
										<g>
											<path style="fill:#EF6931;" d="M105.01,394.59H71.468c-0.296,0-0.539-0.242-0.539-0.539v-6.322
												c0-0.296,0.243-0.539,0.539-0.539h33.541c0.296,0,0.539,0.242,0.539,0.539v6.322
												C105.548,394.348,105.306,394.59,105.01,394.59z"/>
										</g>
									</g>
								</g>
							</g>
						</g>
					</g>
				</g>
			</g>
			<g>
				<g>
					<g>
						<g>
							<g>
								<g>
									<polygon style="fill:#BB4000;" points="101.8,397.907 74.773,400.635 75.842,394.59 101.344,394.59 									"/>
								</g>
							</g>
						</g>
					</g>
				</g>
			</g>
		</g>
	</g>
	<g>
		<g>
			<g>
				<path style="fill:#9A9FB2;" d="M416.843,94.111c-5.788,0-10.496-4.708-10.496-10.496c0-5.788,4.708-10.496,10.496-10.496
					c5.788,0,10.496,4.708,10.496,10.496C427.339,89.402,422.631,94.111,416.843,94.111z M416.843,74.29
					c-5.142,0-9.325,4.183-9.325,9.325c0,5.142,4.183,9.325,9.325,9.325c5.142,0,9.325-4.183,9.325-9.325
					C426.168,78.473,421.985,74.29,416.843,74.29z"/>
			</g>
			<g>
				<path style="fill:#9A9FB2;" d="M416.843,84.2c-0.143,0-0.281-0.052-0.389-0.148c-0.125-0.111-0.197-0.271-0.197-0.438V76.57
					c0-0.324,0.262-0.586,0.586-0.586c0.324,0,0.586,0.262,0.586,0.586v6.385l5.36-0.641c0.322-0.038,0.613,0.191,0.651,0.512
					c0.038,0.321-0.191,0.613-0.512,0.651l-6.015,0.719C416.89,84.199,416.866,84.2,416.843,84.2z"/>
			</g>
		</g>
		<g>
			<path style="fill:#9A9FB2;" d="M462.902,187.15c-2.319,0-4.206-1.887-4.206-4.206s1.887-4.206,4.206-4.206
				s4.206,1.887,4.206,4.206S465.221,187.15,462.902,187.15z M462.902,179.909c-1.673,0-3.035,1.361-3.035,3.035
				c0,1.673,1.361,3.035,3.035,3.035c1.673,0,3.035-1.361,3.035-3.035C465.936,181.27,464.575,179.909,462.902,179.909z"/>
		</g>
		<g>
			<path style="fill:#9A9FB2;" d="M84.966,337.27c-2.319,0-4.206-1.887-4.206-4.206s1.887-4.206,4.206-4.206
				s4.206,1.887,4.206,4.206S87.285,337.27,84.966,337.27z M84.966,330.029c-1.674,0-3.035,1.361-3.035,3.035
				s1.361,3.035,3.035,3.035c1.673,0,3.035-1.361,3.035-3.035S86.639,330.029,84.966,330.029z"/>
		</g>
		<g>
			<path style="fill:#9A9FB2;" d="M100.509,69.114c-2.319,0-4.206-1.887-4.206-4.206s1.887-4.206,4.206-4.206
				c2.319,0,4.206,1.887,4.206,4.206S102.829,69.114,100.509,69.114z M100.509,61.873c-1.674,0-3.035,1.361-3.035,3.035
				c0,1.673,1.361,3.035,3.035,3.035c1.673,0,3.035-1.361,3.035-3.035C103.544,63.234,102.183,61.873,100.509,61.873z"/>
		</g>
		<g>
			<path style="fill:#9A9FB2;" d="M447.404,208.418h-7.536c-0.323,0-0.586-0.262-0.586-0.586v-5.874h-5.876
				c-0.324,0-0.586-0.262-0.586-0.586v-7.536c0-0.323,0.262-0.586,0.586-0.586h5.876v-5.876c0-0.324,0.262-0.586,0.586-0.586h7.536
				c0.324,0,0.586,0.262,0.586,0.586v5.876h5.876c0.324,0,0.586,0.262,0.586,0.586v7.536c0,0.324-0.262,0.586-0.586,0.586h-5.876
				v5.874C447.99,208.156,447.728,208.418,447.404,208.418z M440.454,207.247h6.365v-5.875c0-0.324,0.262-0.586,0.586-0.586h5.876
				v-6.365h-5.876c-0.323,0-0.586-0.262-0.586-0.586v-5.876h-6.365v5.876c0,0.324-0.262,0.586-0.586,0.586h-5.876v6.365h5.876
				c0.324,0,0.586,0.262,0.586,0.586V207.247z"/>
		</g>
		<g>
			<path style="fill:#9A9FB2;" d="M434.416,100.952h-35.072c-0.324,0-0.586-0.262-0.586-0.586c0-0.323,0.262-0.586,0.586-0.586
				h35.072c0.324,0,0.586,0.262,0.586,0.586C435.002,100.69,434.74,100.952,434.416,100.952z"/>
		</g>
		<g>
			<path style="fill:#9A9FB2;" d="M198.947,65.48h-86.003c-0.324,0-0.586-0.262-0.586-0.586c0-0.323,0.262-0.586,0.586-0.586h86.003
				c0.324,0,0.586,0.262,0.586,0.586C199.532,65.218,199.27,65.48,198.947,65.48z"/>
		</g>
	</g>
</g>
</svg>
